999
FreeCAD DXF exporter v0.17-11850 (Git)
0
SECTION
2
HEADER
9
$ACADVER
1
AC1009
0
ENDSEC
0
SECTION
2
BLOCKS
0
BLOCK
5
2711
100
AcDbEntity
8
0
100
AcDbBlockBegin
2
Ortho1
70
0
10
0
20
0
3
Ortho1
1

0
LINE
8
0
6
BYBLOCK
62
0
5
2712
100
AcDbEntity
100
AcDbLine
10
4
20
0
30
0
11
96
21
0
31
0
0
ARC
8
0
6
BYBLOCK
62
0
5
2713
100
AcDbEntity
100
AcDbCircle
10
4
20
4
30
0
40
4
100
AcDbArc
50
-180
51
-90
0
ARC
8
0
6
BYBLOCK
62
0
5
2714
100
AcDbEntity
100
AcDbCircle
10
96
20
4
30
0
40
4
100
AcDbArc
50
-90
51
-1.27222e-14
0
LINE
8
0
6
BYBLOCK
62
0
5
2715
100
AcDbEntity
100
AcDbLine
10
0
20
116
30
0
11
0
21
4
31
0
0
LINE
8
0
6
BYBLOCK
62
0
5
2716
100
AcDbEntity
100
AcDbLine
10
100
20
4
30
0
11
100
21
116
31
0
0
ARC
8
0
6
BYBLOCK
62
0
5
2717
100
AcDbEntity
100
AcDbCircle
10
4
20
116
30
0
40
4
100
AcDbArc
50
90
51
180
0
ARC
8
0
6
BYBLOCK
62
0
5
2718
100
AcDbEntity
100
AcDbCircle
10
96
20
116
30
0
40
4
100
AcDbArc
50
0
51
90
0
LINE
8
0
6
BYBLOCK
62
0
5
2719
100
AcDbEntity
100
AcDbLine
10
96
20
120
30
0
11
4
21
120
31
0
0
LINE
8
0
6
BYBLOCK
62
0
5
271a
100
AcDbEntity
100
AcDbLine
10
9.5
20
96.025
30
0
11
90.5
21
96.025
31
0
0
LINE
8
0
6
BYBLOCK
62
0
5
271b
100
AcDbEntity
100
AcDbLine
10
90.5
20
96.025
30
0
11
90.5
21
41.775
31
0
0
LINE
8
0
6
BYBLOCK
62
0
5
271c
100
AcDbEntity
100
AcDbLine
10
90.5
20
41.775
30
0
11
9.5
21
41.775
31
0
0
LINE
8
0
6
BYBLOCK
62
0
5
271d
100
AcDbEntity
100
AcDbLine
10
9.5
20
41.775
30
0
11
9.5
21
96.025
31
0
0
CIRCLE
8
0
6
BYBLOCK
62
0
5
271e
100
AcDbEntity
100
AcDbCircle
10
87.25
20
25.75
30
0
40
6.5
0
CIRCLE
8
0
6
BYBLOCK
62
0
5
271f
100
AcDbEntity
100
AcDbCircle
10
80
20
110
30
0
40
2
0
CIRCLE
8
0
6
BYBLOCK
62
0
5
2720
100
AcDbEntity
100
AcDbCircle
10
20
20
110
30
0
40
2
0
CIRCLE
8
0
6
BYBLOCK
62
0
5
2721
100
AcDbEntity
100
AcDbCircle
10
80
20
10
30
0
40
2
0
CIRCLE
8
0
6
BYBLOCK
62
0
5
2722
100
AcDbEntity
100
AcDbCircle
10
20
20
10
30
0
40
2
0
ENDBLK
5
2723
100
AcDbEntity
8
0
100
AcDbBlockEnd
0
BLOCK
5
2724
100
AcDbEntity
8
0
100
AcDbBlockBegin
2
Ortho0011
70
0
10
0
20
0
3
Ortho0011
1

0
LINE
8
0
6
BYBLOCK
62
0
5
2725
100
AcDbEntity
100
AcDbLine
10
0
20
8.88178e-16
30
0
11
2
21
8.88178e-16
31
0
0
SPLINE
8
0
6
BYBLOCK
62
0
5
2726
100
AcDbEntity
100
AcDbSpline
70
0
71
2
72
30
73
27
74
0
40
3.14159
40
3.14159
40
3.14159
40
3.25379
40
3.25379
40
3.36599
40
3.36599
40
3.47819
40
3.47819
40
3.59039
40
3.59039
40
3.70259
40
3.70259
40
3.81479
40
3.81479
40
3.92699
40
3.92699
40
4.03919
40
4.03919
40
4.15139
40
4.15139
40
4.26359
40
4.26359
40
4.37579
40
4.37579
40
4.48799
40
4.48799
40
4.71239
40
4.71239
40
4.71239
10
0
20
8.88178e-16
30
0
10
0
20
-0.0125756
30
0
10
0
20
-0.0251512
30
0
10
0
20
-0.0627198
30
0
10
0
20
-0.100288
30
0
10
0
20
-0.162378
30
0
10
0
20
-0.224467
30
0
10
0
20
-0.310296
30
0
10
0
20
-0.396125
30
0
10
0
20
-0.504614
30
0
10
0
20
-0.613103
30
0
10
0
20
-0.742889
30
0
10
0
20
-0.872674
30
0
10
0
20
-1.02212
30
0
10
0
20
-1.17157
30
0
10
0
20
-1.33881
30
0
10
0
20
-1.50604
30
0
10
0
20
-1.68896
30
0
10
0
20
-1.87187
30
0
10
0
20
-2.06817
30
0
10
0
20
-2.26447
30
0
10
0
20
-2.47167
30
0
10
0
20
-2.67888
30
0
10
0
20
-2.8944
30
0
10
0
20
-3.10992
30
0
10
0
20
-3.55056
30
0
10
0
20
-4
30
0
0
LINE
8
0
6
BYBLOCK
62
0
5
2727
100
AcDbEntity
100
AcDbLine
10
0
20
-116
30
0
11
0
21
-4
31
0
0
SPLINE
8
0
6
BYBLOCK
62
0
5
2728
100
AcDbEntity
100
AcDbSpline
70
0
71
2
72
30
73
27
74
0
40
0
40
0
40
0
40
0.1122
40
0.1122
40
0.224399
40
0.224399
40
0.336599
40
0.336599
40
0.448799
40
0.448799
40
0.560999
40
0.560999
40
0.673198
40
0.673198
40
0.785398
40
0.785398
40
0.897598
40
0.897598
40
1.0098
40
1.0098
40
1.122
40
1.122
40
1.2342
40
1.2342
40
1.3464
40
1.3464
40
1.5708
40
1.5708
40
1.5708
10
0
20
-120
30
0
10
0
20
-119.987
30
0
10
0
20
-119.975
30
0
10
0
20
-119.937
30
0
10
0
20
-119.9
30
0
10
0
20
-119.838
30
0
10
0
20
-119.776
30
0
10
0
20
-119.69
30
0
10
0
20
-119.604
30
0
10
0
20
-119.495
30
0
10
0
20
-119.387
30
0
10
0
20
-119.257
30
0
10
0
20
-119.127
30
0
10
0
20
-118.978
30
0
10
0
20
-118.828
30
0
10
0
20
-118.661
30
0
10
0
20
-118.494
30
0
10
0
20
-118.311
30
0
10
0
20
-118.128
30
0
10
0
20
-117.932
30
0
10
0
20
-117.736
30
0
10
0
20
-117.528
30
0
10
0
20
-117.321
30
0
10
0
20
-117.106
30
0
10
0
20
-116.89
30
0
10
0
20
-116.449
30
0
10
0
20
-116
30
0
0
SPLINE
8
0
6
BYBLOCK
62
0
5
2729
100
AcDbEntity
100
AcDbSpline
70
0
71
2
72
30
73
27
74
0
40
3.14159
40
3.14159
40
3.14159
40
3.25379
40
3.25379
40
3.36599
40
3.36599
40
3.47819
40
3.47819
40
3.59039
40
3.59039
40
3.70259
40
3.70259
40
3.81479
40
3.81479
40
3.92699
40
3.92699
40
4.03919
40
4.03919
40
4.15139
40
4.15139
40
4.26359
40
4.26359
40
4.37579
40
4.37579
40
4.48799
40
4.48799
40
4.71239
40
4.71239
40
4.71239
10
2
20
8.88178e-16
30
0
10
2
20
-0.0125756
30
0
10
2
20
-0.0251512
30
0
10
2
20
-0.0627198
30
0
10
2
20
-0.100288
30
0
10
2
20
-0.162378
30
0
10
2
20
-0.224467
30
0
10
2
20
-0.310296
30
0
10
2
20
-0.396125
30
0
10
2
20
-0.504614
30
0
10
2
20
-0.613103
30
0
10
2
20
-0.742889
30
0
10
2
20
-0.872674
30
0
10
2
20
-1.02212
30
0
10
2
20
-1.17157
30
0
10
2
20
-1.33881
30
0
10
2
20
-1.50604
30
0
10
2
20
-1.68896
30
0
10
2
20
-1.87187
30
0
10
2
20
-2.06817
30
0
10
2
20
-2.26447
30
0
10
2
20
-2.47167
30
0
10
2
20
-2.67888
30
0
10
2
20
-2.8944
30
0
10
2
20
-3.10992
30
0
10
2
20
-3.55056
30
0
10
2
20
-4
30
0
0
LINE
8
0
6
BYBLOCK
62
0
5
272a
100
AcDbEntity
100
AcDbLine
10
2
20
-116
30
0
11
2
21
-4
31
0
0
SPLINE
8
0
6
BYBLOCK
62
0
5
272b
100
AcDbEntity
100
AcDbSpline
70
0
71
2
72
30
73
27
74
0
40
0
40
0
40
0
40
0.1122
40
0.1122
40
0.224399
40
0.224399
40
0.336599
40
0.336599
40
0.448799
40
0.448799
40
0.560999
40
0.560999
40
0.673198
40
0.673198
40
0.785398
40
0.785398
40
0.897598
40
0.897598
40
1.0098
40
1.0098
40
1.122
40
1.122
40
1.2342
40
1.2342
40
1.3464
40
1.3464
40
1.5708
40
1.5708
40
1.5708
10
2
20
-120
30
0
10
2
20
-119.987
30
0
10
2
20
-119.975
30
0
10
2
20
-119.937
30
0
10
2
20
-119.9
30
0
10
2
20
-119.838
30
0
10
2
20
-119.776
30
0
10
2
20
-119.69
30
0
10
2
20
-119.604
30
0
10
2
20
-119.495
30
0
10
2
20
-119.387
30
0
10
2
20
-119.257
30
0
10
2
20
-119.127
30
0
10
2
20
-118.978
30
0
10
2
20
-118.828
30
0
10
2
20
-118.661
30
0
10
2
20
-118.494
30
0
10
2
20
-118.311
30
0
10
2
20
-118.128
30
0
10
2
20
-117.932
30
0
10
2
20
-117.736
30
0
10
2
20
-117.528
30
0
10
2
20
-117.321
30
0
10
2
20
-117.106
30
0
10
2
20
-116.89
30
0
10
2
20
-116.449
30
0
10
2
20
-116
30
0
0
LINE
8
0
6
BYBLOCK
62
0
5
272c
100
AcDbEntity
100
AcDbLine
10
0
20
-120
30
0
11
2
21
-120
31
0
0
ENDBLK
5
272d
100
AcDbEntity
8
0
100
AcDbBlockEnd
0
ENDSEC
0
SECTION
2
ENTITIES
0
INSERT
5
272e
8
0
6
BYLAYER
62
256
2
Ortho1
10
92.5
20
-125.0
30
0
41
0.75
42
0.75
43
0.75
50
0.0
0
INSERT
5
272f
8
0
6
BYLAYER
62
256
2
Ortho0011
10
189.166656494
20
-125.0
30
0
41
0.75
42
0.75
43
0.75
50
-180.000005313
0
ENDSEC
0
EOF