<?xml version="1.0" encoding="UTF-8" standalone="no"?>
<svg
   xmlns:dc="http://purl.org/dc/elements/1.1/"
   xmlns:cc="http://creativecommons.org/ns#"
   xmlns:rdf="http://www.w3.org/1999/02/22-rdf-syntax-ns#"
   xmlns:svg="http://www.w3.org/2000/svg"
   xmlns="http://www.w3.org/2000/svg"
   id="svg11810"
   version="1.1"
   viewBox="0 0 74.961365 76.112"
   height="76.112mm"
   width="74.961365mm">
  <defs
     id="defs11804" />
  <metadata
     id="metadata11807">
    <rdf:RDF>
      <cc:Work
         rdf:about="">
        <dc:format>image/svg+xml</dc:format>
        <dc:type
           rdf:resource="http://purl.org/dc/dcmitype/StillImage" />
        <dc:title></dc:title>
      </cc:Work>
    </rdf:RDF>
  </metadata>
  <g
     transform="matrix(0.95006855,0,0,0.95006855,-0.64129152,-205.3465)"
     id="layer1">
    <g
       transform="translate(-48.325068,120.7131)"
       id="g16333">
      <path
         d="m 125.89588,174.84584 c -0.0303,-0.003 -0.0508,-0.0275 -0.0508,-0.0564 v -1.60408 c 0,-0.0261 0.018,-0.0497 0.0455,-0.055 0.11148,-0.0222 0.26458,-0.036 0.41204,-0.036 0.23001,0 0.39123,0.0455 0.50695,0.14887 0.0967,0.0825 0.14746,0.21096 0.14746,0.34995 0,0.19438 -0.10619,0.33902 -0.24801,0.42052 0.091,0.0702 0.14746,0.17885 0.18062,0.31538 0.0522,0.22754 0.0949,0.38876 0.11854,0.43427 0.0204,0.0356 -0.008,0.0826 -0.0497,0.0826 h -0.21766 c -0.0208,0 -0.0413,-0.0124 -0.0512,-0.0303 -0.0166,-0.0346 -0.0303,-0.0801 -0.048,-0.14746 -0.0194,-0.0674 -0.0402,-0.15311 -0.0635,-0.25506 v -0.001 c -0.0236,-0.10584 -0.054,-0.17216 -0.0938,-0.2092 -0.0384,-0.0388 -0.091,-0.0579 -0.17639,-0.0621 h -0.14182 v 0.64911 c 0,0.0317 -0.0247,0.0564 -0.055,0.0564 z m 0.27023,-0.97826 h 0.15839 c 0.10196,0 0.17922,-0.0279 0.23002,-0.0706 0.0512,-0.0427 0.0801,-0.10195 0.0801,-0.17921 0,-0.0907 -0.0289,-0.14464 -0.0811,-0.18309 -0.0512,-0.0399 -0.13124,-0.0621 -0.23566,-0.0621 -0.0787,0 -0.11853,0.007 -0.15169,0.0124 z"
         style="fill:#0d0d0d;fill-opacity:1;fill-rule:nonzero;stroke:none;stroke-width:0.35277775"
         id="path9921" />
      <path
         id="path9923"
         style="fill:#0d0d0d;fill-opacity:1;fill-rule:nonzero;stroke:none;stroke-width:0.35277775"
         d="m 126.35908,172.45224 c -0.84879,0 -1.54341,0.69462 -1.54341,1.54481 0,0.84879 0.69462,1.54058 1.54341,1.54058 0.84878,0 1.54199,-0.69179 1.54199,-1.54058 0,-0.84913 -0.6918,-1.54481 -1.54199,-1.54481 m 0,0.42721 c 0.61877,0 1.11477,0.49883 1.11477,1.1176 0,0.61736 -0.496,1.11478 -1.11477,1.11478 -0.61736,0 -1.11619,-0.49742 -1.11619,-1.11478 0,-0.61877 0.49883,-1.1176 1.11619,-1.1176" />
      <path
         style="fill:#0d0d0d;fill-opacity:1;fill-rule:nonzero;stroke:none;stroke-width:0.35277775"
         d="M 87.228222,95.425518 49.000063,161.61786 h 76.453227 z m 0,3.762045 9.022188,15.623857 H 78.204999 Z M 77.098091,116.72706 h 20.258712 l 14.670417,25.40672 -10.14613,17.56895 H 72.465297 l -10.092922,-17.478 z m 36.015379,27.28671 9.06145,15.68896 h -18.12086 z m -51.826818,0.092 9.006686,15.59698 h -18.01492 z"
         id="path9925" />
      <path
         id="path9927"
         style="fill:#0d0d0d;fill-opacity:1;fill-rule:nonzero;stroke:none;stroke-width:0.35277775"
         d="m 55.712505,172.89321 c 0.07867,0 0.141817,0.0275 0.19297,0.0825 0.04939,0.055 0.07444,0.12136 0.07444,0.20108 v 1.96392 c 0,0.0797 -0.02505,0.14746 -0.07444,0.20249 -0.05115,0.055 -0.1143,0.0829 -0.19297,0.0829 h -6.43008 c -0.188736,0 -0.282222,-0.0967 -0.282222,-0.28539 v -9.85309 c 0,-0.18732 0.09349,-0.28257 0.282222,-0.28257 h 2.05493 c 0.187325,0 0.280811,0.0952 0.280811,0.28257 v 7.33813 c 0,0.0801 0.02787,0.14323 0.0829,0.19297 0.05503,0.0497 0.121356,0.0744 0.201084,0.0744 h 3.810353" />
      <path
         id="path9929"
         style="fill:#0d0d0d;fill-opacity:1;fill-rule:nonzero;stroke:none;stroke-width:0.35277775"
         d="m 67.58136,165.088 c 0.05398,0.0536 0.08149,0.11995 0.08149,0.19968 v 8.17174 h -0.01376 c 0,0.0801 -0.01094,0.16404 -0.03034,0.25365 -0.02081,0.0896 -0.0441,0.16263 -0.07444,0.22331 l -1.369836,1.36983 c -0.06879,0.037 -0.155575,0.0688 -0.258939,0.0882 -0.104775,0.0205 -0.197203,0.0318 -0.276931,0.0318 h -4.716991 c -0.08008,0 -0.169687,-0.0113 -0.267406,-0.0318 -0.09948,-0.0194 -0.184856,-0.0511 -0.255058,-0.0882 l -1.368416,-1.36983 c -0.03986,-0.0702 -0.0702,-0.15452 -0.08961,-0.25365 -0.02046,-0.0991 -0.02893,-0.18874 -0.02893,-0.26882 v -8.12623 c 0,-0.0797 0.02752,-0.14605 0.08149,-0.19968 0.05362,-0.055 0.121003,-0.0829 0.201083,-0.0829 h 2.054578 c 0.07726,0 0.14605,0.0279 0.201436,0.0829 0.05362,0.0536 0.08114,0.11995 0.08114,0.19968 v 7.33812 c 0,0.0801 0.02611,0.14747 0.08114,0.19968 0.05397,0.0568 0.122767,0.0843 0.201436,0.0843 h 2.946047 c 0.08008,0 0.144992,-0.0275 0.194381,-0.0843 0.04833,-0.0522 0.07444,-0.11959 0.07444,-0.19968 v -7.33812 c 0,-0.0797 0.02752,-0.14605 0.08149,-0.19968 0.05362,-0.055 0.121002,-0.0829 0.202494,-0.0829 h 2.066925 c 0.07867,0 0.147461,0.0279 0.201083,0.0829" />
      <path
         id="path9931"
         style="fill:#0d0d0d;fill-opacity:1;fill-rule:nonzero;stroke:none;stroke-width:0.35277775"
         d="m 78.215847,172.89321 c 0.07867,0 0.143227,0.0275 0.192968,0.0825 0.0508,0.055 0.07585,0.12136 0.07585,0.20108 v 1.96392 c 0,0.0797 -0.02506,0.14746 -0.07585,0.20249 -0.04974,0.055 -0.1143,0.0829 -0.192968,0.0829 h -6.430081 c -0.188736,0 -0.282223,-0.0967 -0.282223,-0.28539 v -9.85309 c 0,-0.18732 0.09349,-0.28257 0.282223,-0.28257 h 2.053519 c 0.190147,0 0.283633,0.0952 0.283633,0.28257 v 7.33813 c 0,0.0801 0.02646,0.14323 0.08149,0.19297 0.05503,0.0497 0.121356,0.0744 0.201083,0.0744 h 3.810354" />
      <path
         id="path9933"
         style="fill:#0d0d0d;fill-opacity:1;fill-rule:nonzero;stroke:none;stroke-width:0.35277775"
         d="m 89.365388,167.1648 c 0,0.0783 -0.02188,0.16228 -0.06174,0.25189 -0.0388,0.0896 -0.08431,0.16404 -0.132292,0.22331 l -4.838346,5.44865 h 4.748742 c 0.07832,0 0.144637,0.0265 0.199671,0.0815 0.05503,0.0536 0.08396,0.11995 0.08396,0.19967 v 1.77095 c 0,0.0797 -0.02893,0.14746 -0.08396,0.20249 -0.05503,0.055 -0.121354,0.0829 -0.199671,0.0829 h -7.398808 c -0.187325,0 -0.282575,-0.0967 -0.282575,-0.28539 v -1.86055 c 0,-0.0797 0.01799,-0.1651 0.05256,-0.26035 0.03422,-0.0935 0.07726,-0.17075 0.126648,-0.2286 l 4.94171,-5.44901 h -4.748741 c -0.07867,0 -0.14605,-0.0275 -0.199671,-0.0825 -0.05539,-0.0536 -0.0829,-0.12136 -0.0829,-0.19967 v -1.77236 c 0,-0.0797 0.02752,-0.14605 0.0829,-0.19967 0.05362,-0.055 0.121002,-0.0829 0.199671,-0.0829 h 7.309204 c 0.07832,0 0.144637,0.0279 0.199671,0.0829 0.05503,0.0536 0.08396,0.11994 0.08396,0.19967 v 1.87713" />
      <path
         id="path9935"
         style="fill:#0d0d0d;fill-opacity:1;fill-rule:nonzero;stroke:none;stroke-width:0.35277775"
         d="m 95.585917,173.14792 h 4.003323 v -2.02565 h -4.003323 z m 0,-4.01955 h 4.003323 v -1.86055 h -4.003323 z m 6.264623,-2.6349 c 0.0303,0.0688 0.0579,0.15698 0.0815,0.26035 0.0261,0.10477 0.0384,0.1972 0.0384,0.27446 v 1.65347 c 0,0.0801 -0.018,0.16686 -0.0526,0.2607 -0.0342,0.0949 -0.0769,0.17216 -0.12664,0.23001 l -0.63924,0.81845 c -0.0511,0.0607 -0.0744,0.13511 -0.0663,0.22472 0.004,0.0896 0.0303,0.15698 0.0815,0.20814 l 0.61031,0.74542 c 0.0483,0.0564 0.0938,0.13511 0.1337,0.22895 0.0399,0.0935 0.0593,0.18027 0.0593,0.26176 v 1.75401 c 0,0.0801 -0.0124,0.16969 -0.0384,0.26882 -0.0236,0.0991 -0.0512,0.18344 -0.0815,0.25365 l -1.36842,1.36983 c -0.0702,0.037 -0.15699,0.0688 -0.26035,0.0882 -0.10619,0.0205 -0.19721,0.0318 -0.27411,0.0318 h -6.446662 c -0.188736,0 -0.282575,-0.0967 -0.282575,-0.28539 v -9.85309 c 0,-0.0797 0.02752,-0.14605 0.0829,-0.19967 0.05362,-0.055 0.121002,-0.0829 0.199671,-0.0829 h 6.446659 c 0.0769,0 0.167917,0.0127 0.274107,0.0374 0.10336,0.0247 0.19015,0.0522 0.26035,0.0826 l 1.36842,1.36842" />
      <path
         id="path9937"
         style="fill:#0d0d0d;fill-opacity:1;fill-rule:nonzero;stroke:none;stroke-width:0.35277775"
         d="m 108.35365,172.90979 h 3.49885 v -5.37316 h -3.49885 z m 6.01486,-6.41632 c 0.0303,0.0688 0.0568,0.15452 0.0815,0.25365 0.0261,0.0991 0.0384,0.18873 0.0384,0.2674 v 6.39939 c 0,0.0801 -0.0124,0.16969 -0.0384,0.26882 -0.0247,0.0991 -0.0512,0.18344 -0.0815,0.25365 l -1.36807,1.36983 c -0.0706,0.037 -0.15875,0.0688 -0.26211,0.0882 -0.10196,0.0205 -0.19544,0.0318 -0.27411,0.0318 h -4.71982 c -0.0787,0 -0.16686,-0.0113 -0.2674,-0.0318 -0.0991,-0.0194 -0.18309,-0.0511 -0.25224,-0.0882 l -1.36948,-1.36983 c -0.0388,-0.0702 -0.0691,-0.15452 -0.0882,-0.25365 -0.0208,-0.0991 -0.0303,-0.18874 -0.0303,-0.26882 v -6.39939 c 0,-0.0787 0.01,-0.16827 0.0303,-0.2674 0.0191,-0.0991 0.0494,-0.18486 0.0882,-0.25365 l 1.36948,-1.36843 c 0.0691,-0.0303 0.15311,-0.0579 0.25224,-0.0826 0.10054,-0.0247 0.18873,-0.0374 0.2674,-0.0374 h 4.71982 c 0.0787,0 0.17215,0.0127 0.27411,0.0374 0.10336,0.0247 0.19155,0.0522 0.26211,0.0826 l 1.36807,1.36843" />
      <path
         id="path9939"
         style="fill:#0d0d0d;fill-opacity:1;fill-rule:nonzero;stroke:none;stroke-width:0.35277775"
         d="m 125.45632,167.25406 c 0,0.0787 -0.0275,0.14499 -0.0811,0.20002 -0.0564,0.0536 -0.12136,0.0825 -0.20144,0.0825 h -2.11243 c -0.0797,0 -0.14605,0.0251 -0.20249,0.0744 -0.0536,0.0483 -0.0815,0.1143 -0.0815,0.19297 v 7.33672 c 0,0.0797 -0.0261,0.14746 -0.0744,0.2025 -0.0494,0.055 -0.1143,0.0829 -0.19403,0.0829 h -2.06728 c -0.0825,0 -0.14746,-0.0279 -0.20108,-0.0829 -0.055,-0.055 -0.0825,-0.12277 -0.0825,-0.2025 v -7.33672 c 0,-0.0787 -0.0251,-0.14464 -0.0744,-0.19297 -0.0483,-0.0494 -0.11324,-0.0744 -0.19156,-0.0744 h -2.11525 c -0.0787,0 -0.14605,-0.0289 -0.20144,-0.0825 -0.0522,-0.055 -0.0797,-0.12136 -0.0797,-0.20003 v -1.96638 c 0,-0.18732 0.0921,-0.28257 0.28116,-0.28257 h 7.39705 c 0.0801,0 0.14499,0.0279 0.20143,0.0829 0.0536,0.0536 0.0811,0.11994 0.0811,0.19967 v 1.96638" />
      <path
         style="fill:#0d0d0d;fill-opacity:1;fill-rule:nonzero;stroke:none;stroke-width:0.35277775"
         d="m 87.220988,120.28085 c -0.128058,0 -0.255688,0.0471 -0.363286,0.13953 -0.106185,0.0935 -0.209823,0.39555 -0.348816,0.73845 -0.140758,0.34325 -0.318664,0.72781 -0.576191,0.98392 -0.255058,0.25647 -0.558088,0.40638 -0.874882,0.44907 -0.318569,0.0413 -0.650198,-0.0273 -0.9617,-0.20929 -0.312914,-0.18062 -0.584295,-0.50582 -0.811836,-0.80357 -0.225777,-0.29633 -0.404879,-0.56474 -0.533303,-0.62683 -0.125235,-0.0631 -0.26168,-0.0756 -0.385505,-0.0413 -0.124177,0.0332 -0.235662,0.11039 -0.315744,0.22892 -0.07726,0.11854 -0.09815,0.43835 -0.143658,0.80771 -0.04551,0.36935 -0.116885,0.78638 -0.296108,1.1007 -0.182031,0.31399 -0.435544,0.53715 -0.733288,0.65991 -0.29351,0.12136 -0.630724,0.14065 -0.979267,0.0486 -0.350309,-0.0953 -0.704541,-0.34622 -1.005108,-0.58187 -0.301625,-0.23425 -0.548431,-0.45308 -0.688848,-0.4806 -0.137935,-0.0289 -0.273132,-0.004 -0.386021,0.0605 -0.110067,0.0621 -0.196477,0.16823 -0.243396,0.30334 -0.0441,0.13371 0.02431,0.45582 0.08217,0.82941 0.05785,0.37748 0.102246,0.80502 0.0098,1.15497 -0.0935,0.34855 -0.280147,0.63088 -0.534853,0.82527 -0.253648,0.19438 -0.57459,0.30182 -0.936892,0.30076 -0.361257,0 -0.775991,-0.16448 -1.136883,-0.32711 -0.359833,-0.16122 -0.665885,-0.32062 -0.807702,-0.3111 -0.142171,0.008 -0.265551,0.0659 -0.356568,0.15659 -0.08961,0.091 -0.147571,0.21423 -0.157096,0.35605 -0.0099,0.14181 0.150389,0.4477 0.311607,0.80718 0.162632,0.36125 0.32453,0.77719 0.32453,1.13843 0,0.3609 -0.104071,0.68222 -0.301275,0.93586 -0.195792,0.25365 -0.477245,0.44102 -0.825789,0.53485 -0.349956,0.091 -0.779941,0.0469 -1.156001,-0.0124 -0.373592,-0.0568 -0.694423,-0.12856 -0.830959,-0.0816 -0.132289,0.0441 -0.237371,0.13244 -0.303339,0.24392 -0.0635,0.11042 -0.08643,0.24548 -0.05891,0.38447 0.02893,0.13936 0.244935,0.38863 0.480591,0.68885 0.234244,0.30198 0.483526,0.65463 0.578776,1.00459 0.09384,0.34854 0.07316,0.68617 -0.04961,0.98392 -0.121002,0.29351 -0.346993,0.5475 -0.659908,0.72812 -0.313973,0.18027 -0.731866,0.2506 -1.101225,0.2961 -0.369358,0.0441 -0.690062,0.0643 -0.807185,0.1416 -0.118534,0.0797 -0.197152,0.19332 -0.22996,0.31574 -0.03457,0.12418 -0.02127,0.259 0.04082,0.38706 0.0635,0.12664 0.329467,0.30717 0.6258,0.5333 0.296334,0.22577 0.621536,0.49751 0.803569,0.81183 0.180269,0.31398 0.249254,0.64491 0.205155,0.9617 -0.04022,0.31821 -0.191566,0.62034 -0.448034,0.8754 -0.256117,0.25612 -0.639255,0.4353 -0.98392,0.57464 -0.341841,0.14041 -0.644607,0.2407 -0.738457,0.3483 -0.0949,0.10866 -0.140563,0.23575 -0.140557,0.36381 -0.0013,0.12946 0.04566,0.25782 0.140557,0.36225 0.09244,0.10759 0.395205,0.20972 0.738457,0.35295 0.343252,0.13934 0.726631,0.31838 0.981335,0.57309 0.257892,0.25647 0.407794,0.55853 0.449069,0.8785 0.04127,0.31397 -0.02572,0.64617 -0.20774,0.96015 -0.182034,0.3115 -0.507209,0.58451 -0.804601,0.81028 -0.294923,0.22472 -0.562819,0.40548 -0.626319,0.53072 -0.06209,0.12947 -0.07555,0.26443 -0.04237,0.38861 0.03457,0.12382 0.111943,0.23549 0.230476,0.31522 0.118181,0.0787 0.437827,0.0981 0.807186,0.1447 0.369006,0.0441 0.786759,0.116 1.099674,0.29662 0.313973,0.18062 0.538551,0.43423 0.659908,0.72915 0.122415,0.29598 0.143473,0.63361 0.04857,0.98392 -0.09243,0.34996 -0.34453,0.70231 -0.578776,1.00253 -0.235654,0.30197 -0.455139,0.55 -0.482656,0.68936 -0.02893,0.13899 -0.0026,0.273 0.06098,0.38447 0.06315,0.11183 0.16809,0.19981 0.301792,0.24392 0.135114,0.0469 0.45593,-0.0223 0.83199,-0.0801 0.373592,-0.0579 0.803463,-0.10469 1.153419,-0.0109 0.349954,0.0949 0.632442,0.27965 0.826823,0.5333 0.194379,0.2547 0.301649,0.57487 0.300239,0.93999 -0.0013,0.35948 -0.16486,0.77548 -0.326078,1.13637 -0.161573,0.35983 -0.321625,0.66576 -0.313158,0.80512 0.0095,0.14322 0.0648,0.26837 0.158647,0.35656 0.0896,0.091 0.213577,0.1507 0.353983,0.15917 0.141817,0.01 0.44695,-0.14898 0.809252,-0.31161 0.359481,-0.16122 0.774226,-0.3266 1.13688,-0.3266 0.362305,0 0.681837,0.11021 0.936895,0.30283 0.252235,0.19438 0.439452,0.47827 0.533302,0.82682 0.09207,0.34995 0.04507,0.77893 -0.01138,1.15393 -0.05786,0.37607 -0.127675,0.69546 -0.08217,0.832 0.04551,0.1337 0.131918,0.23685 0.243395,0.30282 0.110419,0.0635 0.247407,0.0871 0.38499,0.061 0.139348,-0.0275 0.387083,-0.24545 0.687298,-0.48111 0.303387,-0.23424 0.656182,-0.48787 1.006139,-0.58136 0.349956,-0.091 0.686035,-0.0716 0.982368,0.0512 0.294923,0.12277 0.548532,0.34608 0.729155,0.66146 0.180269,0.31291 0.252008,0.73135 0.296106,1.10071 0.04551,0.36936 0.06499,0.69072 0.143661,0.80925 0.07832,0.11712 0.190367,0.19563 0.314192,0.22738 0.124177,0.0328 0.259916,0.0218 0.385506,-0.0413 0.129469,-0.0621 0.308721,-0.33088 0.53485,-0.6258 0.2272,-0.29634 0.498761,-0.62138 0.811321,-0.80306 0.314325,-0.18062 0.64648,-0.24835 0.962216,-0.20567 0.318206,0.0399 0.618905,0.19333 0.876432,0.44804 0.253648,0.25646 0.432686,0.6405 0.573093,0.9834 0.139345,0.34325 0.244014,0.64653 0.349848,0.73897 0.106185,0.0952 0.234849,0.14159 0.364318,0.14159 0.126648,0 0.254656,-0.0462 0.362251,-0.14004 0.104786,-0.0924 0.209444,-0.39727 0.349851,-0.74052 0.140758,-0.3429 0.318526,-0.72449 0.574643,-0.98237 0.255058,-0.25612 0.5598,-0.40624 0.876948,-0.44752 0.316794,-0.0416 0.648645,0.0261 0.960147,0.20671 0.315748,0.1845 0.587118,0.50826 0.811837,0.8046 0.227541,0.29774 0.406162,0.56334 0.531751,0.62684 0.128059,0.0635 0.263232,0.0746 0.387057,0.0429 0.125589,-0.0342 0.236934,-0.11181 0.314192,-0.22893 0.08008,-0.11853 0.100598,-0.43938 0.144696,-0.80874 0.04692,-0.36794 0.117033,-0.78673 0.297656,-1.1007 0.18062,-0.31292 0.435263,-0.53801 0.730186,-0.66043 0.296334,-0.12136 0.634342,-0.14227 0.982885,-0.047 0.350319,0.0924 0.704377,0.34467 1.004591,0.58032 0.300567,0.23567 0.548302,0.4536 0.687298,0.48111 0.140758,0.0289 0.27351,0.004 0.384987,-0.0594 0.110421,-0.0649 0.198546,-0.16964 0.245465,-0.30334 0.04374,-0.1337 -0.02522,-0.45593 -0.08165,-0.83199 -0.05787,-0.37359 -0.10328,-0.80363 -0.01085,-1.15394 0.09349,-0.34713 0.281178,-0.63072 0.535884,-0.82475 0.252236,-0.19438 0.574755,-0.30358 0.937411,-0.30076 0.360892,-0.001 0.776883,0.1627 1.136365,0.32815 0.359833,0.15981 0.665749,0.31956 0.806149,0.31109 0.14217,-0.01 0.26607,-0.0671 0.35709,-0.15813 0.0896,-0.0896 0.14898,-0.21529 0.15711,-0.35605 0.009,-0.14182 -0.14846,-0.44749 -0.3111,-0.80874 -0.16124,-0.35948 -0.32415,-0.77599 -0.32557,-1.13688 0,-0.36124 0.10756,-0.6836 0.30334,-0.93689 0.19439,-0.25365 0.47673,-0.43968 0.82527,-0.53175 0.35007,-0.0938 0.7784,-0.047 1.15445,0.0108 0.37502,0.0564 0.69636,0.12678 0.83148,0.0827 0.1337,-0.0455 0.23969,-0.13399 0.30282,-0.24547 0.0635,-0.11148 0.0885,-0.24512 0.061,-0.38447 -0.0289,-0.13899 -0.24686,-0.38827 -0.48109,-0.68885 -0.23437,-0.30021 -0.48509,-0.65607 -0.58034,-1.00355 -0.0921,-0.35137 -0.0718,-0.68618 0.0496,-0.98392 0.12382,-0.29492 0.34576,-0.54788 0.66302,-0.72709 0.31289,-0.18203 0.7303,-0.25229 1.09966,-0.29921 0.36653,-0.0427 0.68916,-0.0638 0.80769,-0.14211 0.11713,-0.0787 0.19717,-0.19142 0.22998,-0.31419 0.0332,-0.12382 0.0191,-0.259 -0.0429,-0.38706 -0.0632,-0.12841 -0.33076,-0.30752 -0.62426,-0.53329 -0.29633,-0.22474 -0.62293,-0.49855 -0.8046,-0.81288 -0.18063,-0.31291 -0.24677,-0.64351 -0.20516,-0.96066 0.0413,-0.31821 0.19259,-0.61841 0.44906,-0.87488 0.25516,-0.25506 0.63912,-0.43321 0.98237,-0.57361 0.34327,-0.14041 0.64513,-0.24261 0.73898,-0.34985 0.0949,-0.10761 0.14004,-0.23575 0.14004,-0.3638 0,-0.12701 -0.0451,-0.25748 -0.14004,-0.36226 -0.0924,-0.10724 -0.39558,-0.20958 -0.73742,-0.35139 -0.34325,-0.14041 -0.72734,-0.31677 -0.98393,-0.57465 -0.25504,-0.25611 -0.4064,-0.55808 -0.44802,-0.87488 -0.0413,-0.31856 0.028,-0.6493 0.20825,-0.96221 0.18203,-0.31399 0.50721,-0.58416 0.8046,-0.81029 0.29773,-0.22579 0.56385,-0.40668 0.62735,-0.53227 0.0635,-0.12947 0.0745,-0.26323 0.0413,-0.38705 -0.0332,-0.12559 -0.11144,-0.2367 -0.22997,-0.31678 -0.11571,-0.0769 -0.43715,-0.0991 -0.80616,-0.14315 -0.36936,-0.0455 -0.78881,-0.11613 -1.10276,-0.29817 -0.31292,-0.18027 -0.53613,-0.43385 -0.65889,-0.73018 -0.12383,-0.29493 -0.1419,-0.63242 -0.048,-0.98237 0.0935,-0.34856 0.34467,-0.70248 0.58034,-1.00304 0.23563,-0.30022 0.45309,-0.54988 0.47955,-0.68782 0.0289,-0.13934 0.007,-0.27278 -0.0594,-0.38602 -0.065,-0.11148 -0.16809,-0.1984 -0.30181,-0.24391 -0.13509,-0.0455 -0.4563,0.0238 -0.83095,0.0816 -0.37642,0.0579 -0.80502,0.10189 -1.15496,0.01 -0.34856,-0.0938 -0.62962,-0.2812 -0.82682,-0.53485 -0.19266,-0.25506 -0.30025,-0.57497 -0.30025,-0.93586 10e-4,-0.36125 0.16695,-0.77754 0.32814,-1.13843 0.16264,-0.35949 0.32253,-0.66575 0.31266,-0.80616 -0.0108,-0.14322 -0.0662,-0.26555 -0.15865,-0.35657 -0.091,-0.0924 -0.21323,-0.14911 -0.35399,-0.15864 -0.14183,-0.009 -0.447497,0.15053 -0.808744,0.31316 -0.360891,0.15981 -0.777398,0.32363 -1.13688,0.32504 -0.361243,-0.001 -0.685175,-0.10741 -0.937411,-0.30179 -0.253293,-0.19579 -0.439298,-0.47844 -0.532783,-0.82734 -0.09384,-0.35136 -0.047,-0.781 0.01085,-1.156 0.05786,-0.375 0.12678,-0.6957 0.08268,-0.82941 -0.04692,-0.13476 -0.133845,-0.23805 -0.243911,-0.30437 -0.111832,-0.0635 -0.245478,-0.0871 -0.384474,-0.061 -0.139346,0.0289 -0.387737,0.24684 -0.689362,0.48214 -0.303389,0.23319 -0.656047,0.48545 -1.004591,0.57929 -0.351366,0.0938 -0.688858,0.0726 -0.982369,-0.0501 -0.296333,-0.12241 -0.548367,-0.34558 -0.728638,-0.6599 -0.180621,-0.31398 -0.252664,-0.7315 -0.298172,-1.10226 -0.0441,-0.36795 -0.06341,-0.69058 -0.143145,-0.80771 -0.08008,-0.11712 -0.189876,-0.19383 -0.312643,-0.22841 -0.124176,-0.0332 -0.262122,-0.0222 -0.389122,0.0413 -0.126648,0.0621 -0.307007,0.32933 -0.532784,0.62426 -0.224718,0.29739 -0.498922,0.62257 -0.811837,0.8046 -0.314325,0.18063 -0.64648,0.24812 -0.962215,0.20825 -0.318207,-0.0441 -0.6198,-0.1957 -0.875917,-0.45217 -0.253645,-0.25611 -0.431651,-0.63963 -0.572055,-0.98288 -0.140769,-0.3429 -0.244017,-0.64587 -0.349851,-0.73794 -0.106185,-0.0938 -0.234497,-0.13967 -0.364318,-0.14108 z m 0.0047,2.40347 c 0.509765,0 0.919324,0.41097 0.919324,0.91932 0,0.5073 -0.409559,0.91623 -0.919324,0.91623 -0.506942,0 -0.91829,-0.40893 -0.91829,-0.91623 0,-0.50835 0.411348,-0.91932 0.91829,-0.91932 z m -0.01551,2.64583 c 3.661482,0 7.102486,1.42349 9.686232,4.00441 5.33857,5.34141 5.33727,14.03023 -0.0041,19.36988 -2.580924,2.58409 -6.020615,4.0044 -9.682097,4.0044 -3.662891,0 -7.100797,-1.42031 -9.683131,-4.0044 -2.583743,-2.58234 -4.004921,-6.02076 -4.004921,-9.68365 -0.0013,-3.66289 1.421178,-7.10235 4.004921,-9.68468 2.580923,-2.58233 6.02165,-4.00596 9.683131,-4.00596 z m 0,0.45476 c -1.721202,0 -3.399515,0.32666 -4.984191,0.97048 -1.642534,0.66393 -3.1172,1.64094 -4.378027,2.90318 -5.160793,5.1622 -5.160793,13.5617 0,18.72496 1.260827,1.26083 2.735493,2.23645 4.378027,2.90214 1.584676,0.64347 3.262989,0.96842 4.984191,0.96842 1.721202,0 3.398621,-0.32495 4.984708,-0.96842 1.642533,-0.66427 3.115651,-1.64159 4.376478,-2.90524 1.26224,-1.26083 2.239558,-2.73395 2.905249,-4.37648 0.640647,-1.58609 0.966867,-3.26337 0.966867,-4.98316 0,-1.72261 -0.32481,-3.39965 -0.966867,-4.98574 -0.664281,-1.64253 -1.642872,-3.11565 -2.903698,-4.37648 -1.260827,-1.26082 -2.734461,-2.23925 -4.376995,-2.90318 -1.5875,-0.64382 -3.26454,-0.97049 -4.985742,-0.97048 z m 0.21394,0.8723 -0.02222,1.52807 c -0.130882,-0.001 -0.26017,-0.001 -0.389642,0.002 l -0.02894,-1.52704 c 0.14605,-0.005 0.293338,-0.004 0.440798,-0.003 z m 1.318784,0.0935 c 0.14605,0.018 0.290615,0.0389 0.436665,0.0625 l -0.240813,1.5074 c -0.127,-0.0205 -0.255373,-0.0386 -0.383439,-0.0537 z m -3.080433,0.005 0.19327,1.51567 c -0.128058,0.0162 -0.256061,0.0329 -0.384471,0.0537 l -0.242364,-1.50792 c 0.143227,-0.0233 0.288925,-0.0449 0.433565,-0.0615 z m 4.811075,0.33434 c 0.141824,0.0384 0.282678,0.0813 0.421682,0.12403 l -0.453721,1.45934 c -0.121002,-0.0384 -0.244792,-0.0757 -0.368969,-0.10749 z m -6.538619,0.007 0.403593,1.4733 c -0.125235,0.036 -0.249656,0.0716 -0.372068,0.10904 l -0.454755,-1.4578 c 0.140414,-0.0441 0.281413,-0.0843 0.42323,-0.12454 z m -7.621757,0.093 c 0.235127,2.7e-4 0.470212,0.0907 0.648542,0.2713 0.35842,0.35807 0.35842,0.93967 0,1.29915 -0.180272,0.17639 -0.411991,0.26872 -0.649058,0.26872 -0.235656,0 -0.470739,-0.0923 -0.648539,-0.26872 -0.358423,-0.36089 -0.358423,-0.94135 0,-1.30225 0.179036,-0.17921 0.413931,-0.26855 0.649055,-0.2682 z m 21.825027,0.007 c 0.234992,-5.3e-4 0.469844,0.0886 0.649055,0.26769 0.356658,0.35842 0.360891,0.93997 0,1.30121 -0.1778,0.17639 -0.413401,0.26873 -0.649055,0.26872 -0.232844,0 -0.469847,-0.0923 -0.649057,-0.26872 -0.357011,-0.35983 -0.357011,-0.93955 0,-1.29656 0.179035,-0.18115 0.414051,-0.27181 0.649057,-0.27234 z m -6.001187,0.47594 c 0.135115,0.0579 0.265896,0.11855 0.401011,0.18346 l -0.656291,1.37924 c -0.117123,-0.055 -0.234416,-0.10902 -0.352949,-0.16123 z m -9.865548,0.01 0.606166,1.40302 c -0.118533,0.0497 -0.237098,0.10465 -0.351398,0.15968 l -0.657326,-1.37924 c 0.133702,-0.0635 0.267446,-0.1256 0.402558,-0.18346 z m 11.429794,0.80771 c 0.123825,0.0755 0.246179,0.15554 0.370004,0.23668 l -0.844391,1.27227 c -0.109017,-0.0716 -0.217729,-0.14207 -0.328147,-0.20981 z m -12.995071,0.008 0.802018,1.30173 c -0.109008,0.0677 -0.219377,0.1365 -0.325562,0.2067 L 80.334074,128.74 c 0.121357,-0.0843 0.245071,-0.16266 0.372071,-0.24133 z m 6.50554,0.53848 c 2.670527,0 5.177375,1.0364 7.062619,2.92024 1.883481,1.88383 2.921267,4.3903 2.921269,7.06365 0,2.67053 -1.040397,5.17878 -2.92282,7.06261 -1.883833,1.88243 -4.392091,2.92024 -7.062618,2.92024 -2.670527,0 -5.178621,-1.03781 -7.062102,-2.92024 -1.883834,-1.88383 -2.921783,-4.39208 -2.921783,-7.06261 0,-2.67194 1.036539,-5.17862 2.921783,-7.0621 1.883481,-1.88384 4.391713,-2.92179 7.063652,-2.92179 z m -0.0016,0.45475 c -2.548115,0 -4.943081,0.98949 -6.741192,2.78795 -1.797047,1.79705 -2.78639,4.19202 -2.78639,6.74119 -3e-6,2.54811 0.98948,4.94169 2.787941,6.74016 1.798108,1.79669 4.191526,2.78794 6.739641,2.78794 2.549525,0 4.943107,-0.98984 6.740157,-2.78794 1.798108,-1.79706 2.787944,-4.19064 2.787944,-6.74016 0,-2.54917 -0.989836,-4.94414 -2.787944,-6.74119 -1.79705,-1.79846 -4.190632,-2.78795 -6.740157,-2.78795 z m 7.928197,0.0315 c 0.118533,0.10196 0.223232,0.19194 0.326597,0.28577 l -1.020094,1.13688 c -0.09102,-0.0815 -0.183261,-0.16018 -0.279569,-0.24132 l 0.476972,-0.5979 z m -15.864147,0.0103 0.980819,1.17099 c -0.09913,0.0811 -0.196345,0.16695 -0.293005,0.25373 l -1.021128,-1.13584 c 0.108657,-0.0991 0.219014,-0.19539 0.333314,-0.28888 z m 17.129186,1.2082 c 0.09631,0.10901 0.194138,0.22161 0.289388,0.33486 l -1.171466,0.97978 c -0.0829,-0.0991 -0.16836,-0.19708 -0.25373,-0.29198 z m -18.39836,0.0165 1.136883,1.02112 c -0.08255,0.0935 -0.165497,0.18895 -0.248047,0.28526 l -0.02479,0.0289 -0.429948,-0.39791 -0.72192,-0.60358 0.0067,-0.007 c 0.09244,-0.11006 0.184814,-0.22041 0.28112,-0.32659 z m 10.163204,0.46716 c 0.188738,-0.003 0.366636,0.0443 0.525034,0.1173 0.07867,0.0356 0.155485,0.0782 0.224277,0.12092 0.07867,0.0526 0.144616,0.10628 0.206705,0.1726 0.128059,0.12947 0.223629,0.30595 0.251145,0.4961 0.02752,0.1845 -0.0085,0.37194 -0.0801,0.53175 -0.07302,0.16122 -0.179054,0.30155 -0.315227,0.41444 -0.133702,0.10901 -0.301017,0.19591 -0.488342,0.20826 l -0.0026,-0.004 c -0.0067,0.004 -0.015,0.002 -0.0217,0.002 -0.06914,0.006 -0.128551,-0.0522 -0.133842,-0.12661 -0.0042,-0.0744 0.04957,-0.13757 0.117305,-0.14004 0.0067,-0.001 0.01498,-0.002 0.01498,-0.002 0.115713,-0.0124 0.228761,-0.0759 0.324011,-0.16123 0.09208,-0.0868 0.167778,-0.19707 0.211873,-0.3142 0.04551,-0.11712 0.05908,-0.24394 0.03721,-0.35295 -0.02506,-0.1143 -0.08554,-0.21252 -0.1695,-0.29507 -0.0441,-0.0385 -0.09909,-0.0769 -0.148829,-0.10439 -0.06173,-0.0356 -0.118612,-0.0647 -0.18035,-0.0884 -0.117121,-0.0469 -0.241234,-0.0675 -0.355534,-0.0594 -0.11571,0.008 -0.227603,0.0455 -0.328144,0.10904 -0.0508,0.0317 -0.100836,0.0687 -0.142111,0.10852 -0.02363,0.0236 -0.04364,0.047 -0.06305,0.0692 -0.01093,0.0109 -0.01979,0.0247 -0.02791,0.0357 l -0.01344,0.0181 c -0.0013,10e-4 -0.0058,0.008 -0.0072,0.009 l -0.0036,0.007 -0.01035,0.009 -0.01757,0.0305 -0.02482,0.0398 c -0.01376,0.0279 -0.03054,0.0557 -0.04289,0.0832 -0.02469,0.0565 -0.04696,0.11437 -0.0646,0.17364 -0.02893,0.11712 -0.04125,0.23567 -0.02326,0.34468 l 0.0011,0.0217 0.0057,0.0181 0.0016,0.015 0.0026,0.006 0.0041,0.0176 c 0.0071,0.0208 0.01373,0.0388 0.02326,0.0579 0.02082,0.036 0.04994,0.0744 0.08733,0.11317 0.07973,0.0811 0.193593,0.16277 0.312126,0.24391 0.244123,0.16546 0.505958,0.33747 0.75396,0.52762 0.124177,0.0938 0.245128,0.1957 0.362251,0.29766 l 0.08992,0.0791 0.08526,0.078 c 0.07197,0.0691 0.137858,0.14486 0.194304,0.23306 0.1143,0.17109 0.173728,0.37612 0.191717,0.5705 0.01659,0.19685 0.0011,0.3821 -0.02635,0.55708 -0.02752,0.1778 -0.07015,0.34548 -0.119891,0.50953 -0.0508,0.16121 -0.112855,0.31663 -0.177765,0.46973 -0.06068,0.14041 -0.125162,0.27868 -0.194305,0.41238 0,0 2.4e-5,0.001 -0.0011,0.004 -0.02646,0.066 -0.318696,0.86538 0.395327,0.2713 0.01376,-0.01 0.02331,-0.0206 0.03565,-0.0305 0.0071,-0.004 0.0122,-0.0108 0.02066,-0.015 0.05362,-0.048 0.103598,-0.0924 0.151926,-0.14211 0.198263,-0.18344 0.378762,-0.38318 0.534337,-0.59273 0.156985,-0.20919 0.279686,-0.43365 0.355534,-0.66507 0.02082,-0.0593 0.03496,-0.11462 0.05013,-0.17777 l 0.04496,-0.21549 0.08423,-0.43356 0.08682,-0.43822 c 0.03034,-0.14746 0.06209,-0.29789 0.110072,-0.44959 0.0441,-0.15275 0.114631,-0.31148 0.206706,-0.44906 0.04551,-0.0677 0.09662,-0.1295 0.148828,-0.19017 0.05503,-0.0677 0.118401,-0.12387 0.181901,-0.17467 0.130881,-0.10195 0.271357,-0.17962 0.415996,-0.24029 0.07197,-0.0317 0.145188,-0.0561 0.219623,-0.0811 0.0755,-0.0233 0.14614,-0.0427 0.23151,-0.0589 l 0.0181,-0.005 h 0.01497 c 0.05645,0.003 0.09491,0.011 0.13901,0.0181 0.04269,0.008 0.0851,0.0176 0.129193,0.03 0.08431,0.0222 0.168317,0.0529 0.248047,0.0899 0.16016,0.0759 0.306623,0.18349 0.423746,0.32142 0.119592,0.13335 0.204899,0.29447 0.259932,0.45992 0.02328,0.0843 0.04295,0.16822 0.0553,0.25218 0.01516,0.0924 0.01675,0.18043 0.0072,0.27286 -0.01939,0.18591 -0.107627,0.36782 -0.241329,0.49764 -0.135114,0.12947 -0.300331,0.21325 -0.472839,0.25735 -0.169333,0.0469 -0.347332,0.0593 -0.520899,0.0346 -0.169685,-0.0261 -0.344498,-0.077 -0.491958,-0.20929 -0.0053,-0.003 -0.0096,-0.007 -0.01241,-0.0124 h -0.0016 c -0.06209,-0.0607 -0.06706,-0.15347 -0.01344,-0.20568 0.05115,-0.0536 0.141377,-0.0451 0.202054,0.0114 l 0.0016,0.001 0.0016,0.005 c 0.08149,0.0783 0.212405,0.13213 0.351401,0.154 0.136523,0.0194 0.282684,0.0108 0.421677,-0.0248 0.133705,-0.036 0.263599,-0.1007 0.357085,-0.19172 0.09384,-0.0938 0.150296,-0.21486 0.161231,-0.34468 0.0085,-0.0646 0.0038,-0.13715 -0.0057,-0.20206 -0.0127,-0.0716 -0.02869,-0.14219 -0.05374,-0.21239 -0.04798,-0.1337 -0.117354,-0.25926 -0.210842,-0.36121 -0.09384,-0.10055 -0.211076,-0.18076 -0.340545,-0.2372 -0.0635,-0.0289 -0.130844,-0.0506 -0.199988,-0.0672 -0.03422,-0.006 -0.06982,-0.0163 -0.104388,-0.0191 -0.02469,-0.005 -0.05385,-0.007 -0.07855,-0.008 -0.05503,0.0124 -0.116811,0.0333 -0.174668,0.0537 -0.0635,0.0236 -0.127283,0.0498 -0.186549,0.0801 -0.122415,0.0579 -0.235456,0.12484 -0.331764,0.20774 -0.04974,0.0413 -0.09394,0.0882 -0.128159,0.13229 -0.04022,0.0508 -0.07729,0.10582 -0.109037,0.16227 -0.06491,0.11041 -0.106323,0.22606 -0.13384,0.35553 -0.05221,0.25929 -0.06464,0.55046 -0.07028,0.83974 -0.0013,0.14464 0,0.2892 0,0.43666 l 0.0057,0.21911 c 0,0.0825 -0.0055,0.17081 -0.01497,0.25477 -0.0388,0.34043 -0.148688,0.65865 -0.279569,0.95498 -0.133702,0.29774 -0.293751,0.57478 -0.46767,0.84077 -0.174979,0.26882 -0.360878,0.52119 -0.559141,0.76637 -0.0141,0.018 -0.02937,0.033 -0.04031,0.0506 0.166865,-0.0991 0.340556,-0.19113 0.524,-0.27544 0.155575,-0.0688 0.315153,-0.13396 0.487309,-0.18759 0.173919,-0.0522 0.358373,-0.0962 0.567923,-0.10748 0.205317,-0.0124 0.444907,0.0113 0.673862,0.11989 0.112887,0.0526 0.214892,0.1269 0.299204,0.2098 0.08537,0.084 0.154104,0.18039 0.201022,0.26717 0.01799,0.0328 0.03341,0.0677 0.04857,0.10232 0.01765,0.0342 0.03575,0.0657 0.05374,0.10025 l 0.109038,0.19586 0.208772,0.39118 c 0.132291,0.26177 0.269052,0.52085 0.416512,0.75087 0.07303,0.11571 0.154268,0.22069 0.238228,0.30747 0.0441,0.0399 0.08857,0.0743 0.131257,0.1018 0.02045,0.0109 0.04376,0.0247 0.06563,0.0346 0.02893,0.008 0.05272,0.0167 0.08165,0.0248 0.110067,0.0289 0.231595,0.0333 0.352952,0.0181 0.06068,-0.0109 0.12106,-0.0263 0.181385,-0.0429 0.03034,-0.01 0.06085,-0.0221 0.08836,-0.0331 l 0.04289,-0.0191 0.03462,-0.0155 0.02479,-0.0134 -0.0083,0.007 c 0.0042,-0.004 0.02215,-0.0122 0.03307,-0.0207 0.01376,-0.005 0.02604,-0.0151 0.03979,-0.0233 0.02611,-0.0166 0.0523,-0.0359 0.077,-0.0563 0.0508,-0.0388 0.09411,-0.0859 0.13539,-0.13384 0.07832,-0.0967 0.134848,-0.2082 0.158131,-0.32814 0.02469,-0.12136 0.01545,-0.25214 -0.01913,-0.37879 -0.01516,-0.0663 -0.03581,-0.12798 -0.06615,-0.19431 -0.02506,-0.0564 -0.05614,-0.11717 -0.09353,-0.16691 -0.07444,-0.10054 -0.172506,-0.17638 -0.286806,-0.21343 -0.116062,-0.0388 -0.246554,-0.0361 -0.368969,-0.002 -0.124177,0.0332 -0.242827,0.0977 -0.340548,0.18449 -0.09666,0.0815 -0.167023,0.18642 -0.191717,0.29507 -0.0013,0.004 -0.0011,0.007 -0.0026,0.0114 -0.0067,0.0219 -0.01802,0.0423 -0.03566,0.0589 -0.05398,0.0536 -0.141197,0.0536 -0.194818,0 -0.04128,-0.0388 -0.04936,-0.10336 -0.02326,-0.15451 0.04692,-0.16828 0.151596,-0.30413 0.268719,-0.41031 0.128059,-0.11712 0.27962,-0.20127 0.446485,-0.2496 0.1651,-0.0469 0.347093,-0.0549 0.523483,-0.004 0.176387,0.0512 0.33111,0.16413 0.439767,0.30489 0.05503,0.0688 0.09917,0.14006 0.137975,0.22014 0.03563,0.0741 0.06449,0.15298 0.09095,0.23306 0.04939,0.16122 0.069,0.34155 0.04289,0.51935 -0.02363,0.1778 -0.09831,0.34873 -0.203089,0.49196 -0.05221,0.0702 -0.112718,0.13517 -0.176218,0.19585 -0.03281,0.0289 -0.06633,0.0566 -0.102317,0.0827 -0.01905,0.0124 -0.03806,0.0245 -0.05323,0.0382 -0.01939,0.0113 -0.03201,0.0207 -0.05529,0.0331 -0.02363,0.0138 -0.03869,0.0222 -0.05633,0.0331 -0.01939,0.008 -0.03869,0.019 -0.05633,0.0289 -0.03881,0.018 -0.07605,0.0358 -0.116271,0.0496 -0.0755,0.0303 -0.158403,0.0554 -0.242364,0.0734 -0.164041,0.0356 -0.343336,0.0426 -0.518313,0.0109 -0.04551,-0.008 -0.09102,-0.0195 -0.132292,-0.0346 -0.04692,-0.0124 -0.09346,-0.0317 -0.133326,-0.0522 -0.08819,-0.0402 -0.163097,-0.0951 -0.230476,-0.14728 -0.136525,-0.10901 -0.243903,-0.23028 -0.347265,-0.34881 -0.103013,-0.11713 -0.196824,-0.23804 -0.287841,-0.35657 l -0.268716,-0.35605 -0.264583,-0.3483 -0.131257,-0.17105 c -0.02328,-0.0289 -0.04404,-0.0563 -0.06873,-0.0853 -0.02328,-0.0261 -0.05113,-0.0526 -0.07441,-0.0791 -0.06738,-0.066 -0.115345,-0.078 -0.162264,-0.078 -0.04692,0 -0.108818,0.009 -0.191719,0.0382 -0.166865,0.0579 -0.375889,0.18772 -0.573093,0.34365 -0.195792,0.15557 -0.391197,0.34157 -0.574641,0.53278 -0.01236,0.0141 -0.02511,0.025 -0.03462,0.0388 0.209198,0.18592 0.415819,0.37892 0.614434,0.59377 0.121353,0.13652 0.247041,0.27985 0.356049,0.4439 0.111477,0.16263 0.211572,0.35145 0.283187,0.56947 0.06632,0.21766 0.09111,0.47386 0.04031,0.70952 -0.02506,0.11712 -0.06602,0.2245 -0.115755,0.32504 -0.01376,0.0261 -0.01921,0.0397 -0.03049,0.0563 l -0.02739,0.0486 -0.05116,0.0951 c -0.139348,0.25471 -0.27002,0.50987 -0.376205,0.7674 -0.108657,0.25788 -0.195573,0.51949 -0.214974,0.76326 -0.01093,0.11853 -0.0054,0.23316 0.02635,0.339 0.0071,0.0265 0.01659,0.0514 0.02894,0.0775 0.0013,0.004 0.0071,0.0151 0.01241,0.0233 0.0042,0.0113 0.01241,0.022 0.01913,0.0315 0.02611,0.0427 0.0648,0.0831 0.107487,0.12299 0.174976,0.15839 0.443804,0.27692 0.690395,0.34571 l 0.0083,0.003 c 0.0113,0 0.02747,2.4e-4 0.03876,-0.003 0.02751,0 0.0553,-0.001 0.08423,-0.004 0.05645,-0.01 0.10998,-0.0223 0.165365,-0.0403 0.108656,-0.037 0.20815,-0.0961 0.293523,-0.17621 0.08678,-0.0769 0.159941,-0.17378 0.214974,-0.28526 l 0.02066,-0.0439 h 0.0016 v -0.002 l 0.0011,-10e-4 v -0.003 l 0.0057,-0.0124 0.0093,-0.0233 c 0.0113,-0.0265 0.02058,-0.0538 0.03152,-0.0827 0.01516,-0.0536 0.02791,-0.11174 0.02791,-0.16537 0.0056,-0.109 -0.02215,-0.20918 -0.08423,-0.29455 -0.06209,-0.0868 -0.156847,-0.15214 -0.263033,-0.19482 -0.109008,-0.0399 -0.227068,-0.0618 -0.34313,-0.0548 -0.1143,0.007 -0.222993,0.016 -0.329181,0.0548 -0.07585,0.0399 -0.168291,0.0128 -0.212389,-0.0631 -0.04269,-0.0702 -0.02756,-0.16303 0.03876,-0.21136 l 0.0036,-0.005 c 0.01376,-0.004 0.02693,-0.0109 0.03927,-0.0165 0.14605,-0.0744 0.299958,-0.1018 0.451652,-0.1018 0.164041,0 0.325281,0.0316 0.476975,0.0961 0.147108,0.0635 0.29351,0.16427 0.396875,0.30644 0.104423,0.14182 0.156778,0.32486 0.148312,0.49455 -0.0011,0.0854 -0.01519,0.16769 -0.03566,0.24494 -0.0085,0.0399 -0.02048,0.0776 -0.03565,0.11886 l -0.02066,0.0532 -0.02635,0.0527 c -0.06456,0.13899 -0.152614,0.27834 -0.263033,0.39687 -0.111477,0.11712 -0.250841,0.21339 -0.403593,0.28112 -0.07444,0.0342 -0.154646,0.0591 -0.237196,0.0796 -0.03845,0.007 -0.07875,0.0154 -0.121438,0.0196 -0.02188,0.003 -0.04272,0.006 -0.0646,0.007 l -0.03462,10e-4 c -0.01093,0.001 -0.02074,0.001 -0.03979,0 h -0.01138 l -0.01603,-0.003 c -0.0896,-0.0194 -0.16252,-0.0376 -0.239778,-0.0594 -0.07867,-0.0251 -0.153054,-0.0512 -0.22996,-0.0801 -0.153104,-0.0621 -0.303395,-0.13512 -0.448035,-0.24236 -0.07161,-0.054 -0.142031,-0.11705 -0.204121,-0.19431 -0.01799,-0.0194 -0.03327,-0.04 -0.04702,-0.0594 -0.01376,-0.0208 -0.02749,-0.0412 -0.04548,-0.0687 -0.02328,-0.0402 -0.04416,-0.0825 -0.06356,-0.1266 -0.07832,-0.17357 -0.11281,-0.35846 -0.120925,-0.53485 -0.01236,-0.17639 0.0029,-0.34432 0.02482,-0.50695 0.02328,-0.16263 0.05214,-0.31973 0.09095,-0.47284 0.07303,-0.31009 0.486354,-1.5641 -0.237194,-1.71721 0,0 -0.0013,-0.003 -0.0041,-0.003 -0.08678,-0.0261 -1.507231,-0.42584 -3.403412,1.33946 -0.595487,0.54715 0.40101,1.41128 0.40101,1.41128 0.214842,0.21378 0.432549,0.42703 0.644922,0.67644 0.105833,0.12559 0.209068,0.25766 0.291973,0.4284 0.04268,0.0854 0.07731,0.18086 0.09353,0.28422 0.0099,0.0508 0.01151,0.10416 0.01291,0.15813 -0.0013,0.0124 -0.0016,0.0265 -0.0016,0.0403 l -0.0031,0.0176 -0.0011,0.0139 -0.0031,0.0372 -0.0057,0.0331 c -0.02893,0.18733 -0.100439,0.35845 -0.195337,0.50591 -0.04833,0.073 -0.09886,0.14476 -0.158131,0.20826 -0.02787,0.0342 -0.05831,0.0646 -0.09147,0.0935 -0.01376,0.0152 -0.03148,0.0289 -0.04806,0.0455 -0.01659,0.0138 -0.03163,0.0273 -0.05633,0.0439 -0.01659,0.018 -0.02748,0.0237 -0.04548,0.0346 -0.01939,0.0166 -0.03624,0.026 -0.05529,0.0398 -0.03739,0.0247 -0.07716,0.0453 -0.114205,0.0661 -0.07726,0.0385 -0.160369,0.0717 -0.248563,0.0992 -0.170746,0.0455 -0.357806,0.0494 -0.532786,0.0124 -0.174977,-0.0384 -0.335354,-0.12129 -0.468704,-0.22324 -0.06632,-0.0508 -0.129453,-0.10751 -0.184486,-0.16536 -0.06209,-0.066 -0.113276,-0.13228 -0.160195,-0.20671 -0.08961,-0.14993 -0.145772,-0.33495 -0.129193,-0.51522 0.01093,-0.18203 0.08267,-0.35038 0.186036,-0.48937 0.100542,-0.13935 0.233813,-0.25079 0.385506,-0.33228 0.14605,-0.0783 0.315611,-0.12651 0.497644,-0.10852 0.03739,-0.001 0.07715,0.0124 0.107487,0.0413 0.05503,0.0565 0.05529,0.14329 0.0041,0.19585 -0.03563,0.0342 -0.08702,0.0439 -0.129707,0.0315 -0.11289,-0.018 -0.240855,0.0122 -0.356568,0.0729 -0.116062,0.0603 -0.218165,0.14872 -0.295071,0.25632 -0.07585,0.10336 -0.121341,0.22767 -0.125574,0.34726 -0.0053,0.12136 0.03184,0.23953 0.09922,0.34572 0.03457,0.0536 0.0803,0.10511 0.122989,0.14779 0.05362,0.0483 0.106059,0.0911 0.159682,0.12816 0.109008,0.0773 0.230259,0.12823 0.34985,0.14728 0.121354,0.0194 0.247195,0.004 0.364318,-0.0372 0.05927,-0.0194 0.115359,-0.0484 0.168982,-0.0801 0.02611,-0.0166 0.0535,-0.0354 0.07855,-0.0548 0.01236,-0.01 0.02344,-0.0198 0.03721,-0.0279 0.0085,-0.01 0.02529,-0.022 0.02635,-0.0259 l -0.0057,0.008 0.04857,-0.0486 0.03152,-0.0326 c 0.02222,-0.0236 0.04261,-0.0483 0.06201,-0.0744 0.03986,-0.0512 0.07442,-0.1034 0.103352,-0.1602 0.05786,-0.11148 0.08803,-0.23024 0.09509,-0.34313 l 0.0026,-0.0222 -0.0011,-0.0357 v -0.003 l -0.0016,-0.003 c 0.0013,-0.007 0.0013,-0.0109 0,-0.0165 -0.0013,-0.0233 -0.0057,-0.0453 -0.01241,-0.0672 -0.0127,-0.0441 -0.03463,-0.0912 -0.06356,-0.13952 -0.06068,-0.0949 -0.14713,-0.19377 -0.249081,-0.29043 -0.201436,-0.19156 -0.437034,-0.3748 -0.671277,-0.55965 l -0.358119,-0.27957 -0.179316,-0.14056 -0.114205,-0.0909 -0.03049,-0.0264 c -0.02222,-0.0194 -0.04247,-0.0401 -0.06046,-0.0563 -0.07867,-0.0815 -0.147539,-0.17945 -0.202573,-0.28422 -0.05115,-0.10337 -0.08836,-0.21735 -0.110585,-0.32918 -0.03986,-0.22331 -0.01871,-0.43244 0.01551,-0.62012 0.07726,-0.38029 0.218686,-0.6973 0.368969,-0.99787 0.07585,-0.14746 0.154506,-0.28774 0.235646,-0.42427 0.0013,-0.001 0.0016,-0.004 0.0031,-0.007 l 0.0011,-0.003 c -0.0013,0 0,-0.001 0,-0.001 0,0 -1.322567,0.62797 -1.829861,0.69712 0,10e-4 -0.0016,0 -0.0016,0 -0.03845,0.008 -0.07671,0.0193 -0.118341,0.0263 -0.240948,0.0469 -0.494588,0.0577 -0.74259,0.0274 -0.06068,-0.007 -0.12174,-0.0181 -0.182417,-0.0305 l -0.0894,-0.0191 -0.08527,-0.0233 c -0.09913,-0.0261 -0.190357,-0.0487 -0.285253,-0.0734 -0.190148,-0.0441 -0.379108,-0.0825 -0.556556,-0.0987 -0.08961,-0.008 -0.172453,-0.0153 -0.252182,-0.007 -0.08008,0.007 -0.151808,0.0151 -0.230476,0.0398 -0.07691,0.0236 -0.164156,0.0609 -0.267166,0.10077 -0.04974,0.0194 -0.103402,0.0399 -0.160197,0.0579 l -0.02739,0.008 -0.02479,0.0109 c -0.01659,0.007 -0.03148,0.0139 -0.04806,0.0238 -0.129469,0.0632 -0.247841,0.17647 -0.337447,0.31264 -0.02045,0.036 -0.04299,0.0716 -0.06098,0.10904 l -0.01241,0.0233 c -0.0042,0.01 -0.0013,0.001 -0.0067,0.0134 -0.0071,0.0152 -0.01265,0.0374 -0.01654,0.0568 -0.02222,0.0769 -0.0345,0.16256 -0.03979,0.24546 -0.0085,0.16404 0.02606,0.31507 0.104389,0.43925 0.07726,0.12523 0.208404,0.22215 0.371036,0.29094 0.165452,0.0702 0.338854,0.11035 0.491958,0.0909 0.155575,-0.0152 0.284951,-0.0922 0.378791,-0.22169 0.17921,-0.25506 0.185856,-0.67519 -0.01241,-0.9493 h -0.0016 c -0.04268,-0.0427 -0.03692,-0.12184 0.01704,-0.17828 0.05221,-0.0526 0.1293,-0.0592 0.176218,-0.0165 v 0.002 c 0.0039,0.003 0.0065,0.007 0.0093,0.01 0.158396,0.1778 0.248182,0.40109 0.271818,0.63251 0.02188,0.23566 -0.01794,0.48218 -0.148829,0.70126 -0.06491,0.109 -0.153106,0.20964 -0.264583,0.28266 -0.109008,0.0759 -0.232807,0.12541 -0.361217,0.14728 -0.254706,0.0455 -0.501534,-0.003 -0.717788,-0.0796 -0.220485,-0.0744 -0.452279,-0.21407 -0.609264,-0.42891 -0.07867,-0.10619 -0.139176,-0.22899 -0.176218,-0.3514 -0.03457,-0.12559 -0.05233,-0.25061 -0.05374,-0.3762 -0.0028,-0.12383 0.0094,-0.24362 0.03411,-0.36639 0.0053,-0.0303 0.01551,-0.0608 0.02223,-0.0925 0.0042,-0.0138 0.01643,-0.0453 0.02066,-0.0594 l 0.0181,-0.0439 c 0.02469,-0.0607 0.05197,-0.11602 0.08372,-0.17105 0.118533,-0.21202 0.29347,-0.41176 0.523483,-0.54829 0.02893,-0.0177 0.05805,-0.0329 0.08733,-0.0481 l 0.04806,-0.0238 0.04238,-0.0191 c 0.04128,-0.018 0.08303,-0.0346 0.127124,-0.0568 0.08678,-0.0427 0.183118,-0.0948 0.300241,-0.14314 0.11571,-0.0455 0.245661,-0.0783 0.369486,-0.0977 0.125589,-0.0194 0.246303,-0.0248 0.364836,-0.0248 0.232833,0.004 0.453499,0.0318 0.668692,0.0636 0.104775,0.0166 0.214686,0.0359 0.315227,0.0563 l 0.03772,0.004 0.02739,0.004 0.06356,0.01 c 0.04128,0.004 0.08275,0.007 0.124023,0.01 0.244123,0.007 0.484838,-0.0431 0.715203,-0.14366 0,0 0.0026,-1.4e-4 0.0026,-0.002 0.0013,-0.001 0.0027,-1.2e-4 0.0041,-0.003 0.07585,-0.0317 0.150217,-0.0691 0.223242,-0.11317 0.14746,-0.084 0.28911,-0.18998 0.418578,-0.30851 l 0.0031,-0.003 c 0.143227,-0.11289 0.267089,-0.23634 0.329179,-0.35347 0.100541,-0.18485 0.115766,-0.25547 0.01241,-0.26923 -0.08678,-0.01 -0.254781,0.0195 -0.526069,0.0527 -0.02363,0.001 -0.04535,0.006 -0.07286,0.008 -0.221896,0.0261 -0.439822,0.0523 -0.657839,0.076 -0.236715,0.019 -0.467215,0.0535 -0.721921,0.0729 -0.129823,0.005 -0.264385,0.003 -0.405143,-0.0248 -0.137584,-0.0289 -0.282393,-0.0845 -0.411861,-0.17828 -0.126648,-0.0907 -0.23586,-0.20918 -0.307475,-0.339 -0.03457,-0.0632 -0.06471,-0.12951 -0.0894,-0.19688 -0.02469,-0.0702 -0.03458,-0.11253 -0.05116,-0.16227 -0.05398,-0.20108 -0.128275,-0.39279 -0.204121,-0.58188 -0.07832,-0.18591 -0.158557,-0.36878 -0.250632,-0.53846 -0.09102,-0.16546 -0.192698,-0.31844 -0.312642,-0.41652 -0.11571,-0.10054 -0.274034,-0.1649 -0.436666,-0.17725 -0.161218,-0.0152 -0.339034,0.019 -0.499194,0.092 -0.01905,0.008 -0.0414,0.0177 -0.05374,0.0258 -0.01516,0.006 -0.03059,0.0167 -0.04858,0.0305 -0.03281,0.0208 -0.06451,0.0482 -0.09767,0.0786 -0.06209,0.0579 -0.114131,0.12452 -0.153996,0.19896 -0.08431,0.14323 -0.116038,0.31078 -0.09663,0.48576 0.0095,0.0882 0.03322,0.17394 0.06356,0.26355 l 0.01241,0.0315 v 0.008 c 0.0013,0.003 0.0041,0.005 0.0041,0.005 l 0.0052,0.016 c 0.0085,0.0152 0.01124,0.0194 0.01654,0.0289 0.0013,0.006 0.007,0.0153 0.01085,0.0238 0.02082,0.0332 0.04434,0.067 0.07079,0.0946 0.104775,0.11606 0.26982,0.17397 0.443386,0.16691 0.173919,0 0.352513,-0.062 0.496094,-0.16536 0.141817,-0.10478 0.238953,-0.25881 0.259413,-0.42426 0.0013,-0.01 0.0038,-0.0222 0.0052,-0.032 0.02611,-0.0716 0.103568,-0.10569 0.17518,-0.0796 0.0702,0.0261 0.107731,0.0992 0.08268,0.16795 -0.01236,0.11324 -0.04963,0.22462 -0.107485,0.31987 -0.06209,0.10866 -0.144743,0.20114 -0.23823,0.27699 -0.188736,0.15028 -0.41755,0.2388 -0.659908,0.25114 -0.121354,0.005 -0.24837,-0.007 -0.366903,-0.0455 -0.122764,-0.0402 -0.236749,-0.10807 -0.329179,-0.2005 -0.04692,-0.0441 -0.08853,-0.0963 -0.125571,-0.14883 -0.0056,-0.0152 -0.01373,-0.0274 -0.02326,-0.0439 -0.01093,-0.0148 -0.01654,-0.0315 -0.02326,-0.0413 l -0.0088,-0.0181 -0.01085,-0.0243 -0.01654,-0.0403 c -0.0441,-0.10618 -0.07982,-0.21905 -0.09922,-0.33899 -0.03846,-0.23848 -0.0058,-0.50172 0.108519,-0.72502 0.0568,-0.11289 0.128569,-0.2145 0.213939,-0.30128 0.04128,-0.0441 0.08962,-0.0868 0.139012,-0.12557 0.02506,-0.0191 0.04952,-0.0385 0.08268,-0.0579 0.03034,-0.019 0.05517,-0.0329 0.08268,-0.0481 0.215193,-0.10619 0.450815,-0.17373 0.706932,-0.1695 0.257881,0.006 0.510064,0.0868 0.722437,0.24133 0.212373,0.15416 0.35665,0.35241 0.478007,0.53692 0.121001,0.19014 0.220493,0.38322 0.315743,0.57619 0.09525,0.19297 0.183414,0.38304 0.287837,0.56896 0.05539,0.10477 0.08714,0.15471 0.132292,0.1974 0.0441,0.0455 0.08535,0.0744 0.133326,0.0977 0.0441,0.0261 0.09694,0.0508 0.157612,0.0713 0.06174,0.0194 0.137716,0.0333 0.214974,0.0403 0.165452,0.0152 0.34584,-0.0276 0.50953,-0.11576 0.103364,-0.055 0.201586,-0.11973 0.295074,-0.19275 0,0 0.187708,-0.11482 0.351398,-0.35295 -0.327731,-0.61066 -0.385752,-1.31176 -0.169497,-1.91255 -0.150284,-0.18203 -0.297937,-0.37101 -0.433049,-0.57774 -0.141817,-0.21766 -0.274098,-0.45451 -0.367938,-0.72192 -0.04551,-0.13652 -0.08254,-0.2767 -0.103351,-0.4284 -0.01905,-0.14887 -0.01902,-0.30744 0.0057,-0.46302 0.01516,-0.0773 0.03318,-0.15294 0.05788,-0.22737 0.0071,-0.018 0.01413,-0.0372 0.02119,-0.0537 l 0.0052,-0.0124 c 0,-0.003 0.0013,-0.008 0.0041,-0.01 l 0.0093,-0.0191 0.03462,-0.0744 c 0.04692,-0.0995 0.08828,-0.20035 0.121441,-0.30231 0.06597,-0.19967 0.104637,-0.41014 0.108519,-0.58653 0.0071,-0.0896 -0.0013,-0.16431 -0.01603,-0.21652 -0.0071,-0.0275 -0.0195,-0.0538 -0.04031,-0.0941 -0.01905,-0.0356 -0.04938,-0.0769 -0.08113,-0.13229 -0.174977,-0.22719 -0.470013,-0.39506 -0.759642,-0.42117 -0.300215,-0.0275 -0.550971,0.10049 -0.679029,0.38448 -0.01799,0.0317 -0.03172,0.0685 -0.04548,0.10594 -0.0071,0.019 -0.0123,0.0383 -0.01654,0.0563 l -0.02066,0.0718 c -0.02045,0.0674 -0.03307,0.14914 -0.03307,0.21652 0,0.14076 0.05222,0.24769 0.161231,0.32918 0.110064,0.0825 0.275839,0.12557 0.442349,0.12557 0.165452,0.003 0.337447,-0.0375 0.469739,-0.12144 l 0.0016,0.001 c 0.04269,-0.0275 0.107456,-0.0158 0.152961,0.0269 0.04974,0.0522 0.0565,0.12657 0.01241,0.17208 -0.0013,0.001 -0.0027,0.003 -0.0052,0.004 -0.08713,0.0783 -0.187952,0.1325 -0.289904,0.17519 -0.104775,0.0384 -0.211905,0.0657 -0.320911,0.078 -0.220487,0.0236 -0.454927,-2e-4 -0.675412,-0.12403 -0.107598,-0.0621 -0.208193,-0.15545 -0.276984,-0.26975 -0.07021,-0.11571 -0.108956,-0.24376 -0.119891,-0.36794 -0.01093,-0.12382 -0.0027,-0.23751 0.0181,-0.35605 l 0.01654,-0.0754 c 0.0039,-0.0265 0.01101,-0.0536 0.01913,-0.0811 0.01516,-0.0536 0.03345,-0.11176 0.05426,-0.16433 0.08396,-0.21625 0.240732,-0.43088 0.457338,-0.56741 0.216252,-0.13652 0.472591,-0.18898 0.711068,-0.18086 0.2413,0.0109 0.466616,0.0771 0.673343,0.1819 0.20814,0.10477 0.397111,0.25089 0.548804,0.43821 l 0.0016,0.005 0.01654,0.0202 c 0.02612,0.0374 0.05908,0.0803 0.09612,0.13953 0.04127,0.0579 0.08166,0.13203 0.110588,0.20929 0.06068,0.15981 0.07296,0.31268 0.06873,0.45062 -0.01093,0.27129 -0.07025,0.50318 -0.115755,0.73742 -0.02223,0.11571 -0.0443,0.23156 -0.06511,0.34727 l -0.01344,0.0879 -0.0031,0.0196 -0.0011,0.0124 v 0.007 c -0.0028,0.008 -0.0029,0.0165 -0.0057,0.0264 -0.0042,0.0328 -0.0024,0.0688 -0.0011,0.10335 0.01376,0.13758 0.06725,0.27958 0.159681,0.41858 0.09525,0.14217 0.219025,0.28007 0.362252,0.40566 0.113242,0.0977 0.234571,0.19382 0.36122,0.2806 0.832201,-0.55104 2.000877,-0.4419 2.840135,0.28835 0.143227,-0.091 0.27967,-0.21093 0.407728,-0.36122 0.0042,-10e-4 0.0042,-0.002 0.0067,-0.007 0.0056,-0.007 0.01124,-0.0138 0.01654,-0.0222 0.08572,-0.10724 0.164433,-0.21783 0.233577,-0.33072 0.06879,-0.11289 0.130807,-0.23017 0.172082,-0.34624 0.03704,-0.11712 0.05653,-0.23514 0.04806,-0.33744 -0.0081,-0.10443 -0.03721,-0.19705 -0.08837,-0.27854 -0.02328,-0.0399 -0.0538,-0.0778 -0.08837,-0.11524 l -0.07697,-0.0783 -0.077,-0.076 c -0.100542,-0.10195 -0.209531,-0.19862 -0.316778,-0.29352 -0.218016,-0.19156 -0.447799,-0.36096 -0.69298,-0.54829 -0.122767,-0.0963 -0.252683,-0.19473 -0.37827,-0.33796 -0.06315,-0.0716 -0.122441,-0.1554 -0.167949,-0.25735 -0.02222,-0.0483 -0.03853,-0.10089 -0.04806,-0.15451 -0.0028,-0.0109 -0.0069,-0.0234 -0.0083,-0.0372 l -0.0057,-0.0315 -0.0057,-0.0403 -0.0036,-0.0326 c -0.01516,-0.19015 0.0093,-0.37806 0.06718,-0.54881 0.02893,-0.084 0.06377,-0.16263 0.106453,-0.24236 0.01939,-0.0388 0.04093,-0.0759 0.06563,-0.11472 0.0127,-0.018 0.02514,-0.0372 0.04031,-0.0537 0.01093,-0.0194 0.02344,-0.0318 0.03721,-0.0512 l 0.0016,-0.004 c 0,0 0.0028,0.001 0,-0.002 0.0042,-0.001 0.0043,-0.003 0.0057,-0.006 0.0053,-0.008 0.0091,-0.0109 0.01188,-0.0165 l 0.02326,-0.0289 c 0.01516,-0.0191 0.03223,-0.033 0.04599,-0.0506 0.03457,-0.0317 0.06603,-0.0637 0.100253,-0.0941 0.06773,-0.0593 0.142102,-0.10863 0.223242,-0.15555 0.159808,-0.0882 0.347411,-0.14222 0.532265,-0.14469 z m 3.572909,13.93609 h -0.01085 l 0.01394,0.003 c -0.0013,-0.003 -0.0016,-0.003 -0.0031,-0.003 z m 5.74536,-13.02662 c 0.08396,0.121 0.164071,0.24542 0.241329,0.37207 l -1.301213,0.80202 c -0.06738,-0.11043 -0.138191,-0.21783 -0.209804,-0.32401 z m -20.563086,0.0155 1.270209,0.85008 c -0.07161,0.10724 -0.140358,0.215 -0.20774,0.32401 l -1.301176,-0.80514 c 0.07867,-0.12382 0.157253,-0.24796 0.238744,-0.36896 z m 21.437968,1.5167 c 0.06351,0.13512 0.124185,0.26744 0.183452,0.40256 l -1.400429,0.61185 c -0.05221,-0.11854 -0.106339,-0.23686 -0.162783,-0.35399 z m -22.31078,0.015 1.379759,0.66043 c -0.05644,0.11607 -0.110077,0.23286 -0.161229,0.3514 l -1.399916,-0.60772 c 0.05644,-0.13653 0.118237,-0.27041 0.181386,-0.40411 z m 22.955702,1.62781 c 0.04411,0.1404 0.08712,0.28223 0.125574,0.42581 l -1.474843,0.40101 c -0.03422,-0.12383 -0.06852,-0.24796 -0.106971,-0.36897 z m -23.600108,0.0165 1.45779,0.45372 c -0.03704,0.121 -0.07136,0.24618 -0.105936,0.37 l -1.474843,-0.40204 c 0.0388,-0.14076 0.0803,-0.28269 0.122989,-0.42168 z m 24.007836,1.69912 c 0.02188,0.14605 0.04313,0.29217 0.06253,0.43822 l -1.516187,0.19172 c -0.01659,-0.12806 -0.03445,-0.25539 -0.05633,-0.38344 z m -24.410395,0.0165 1.508951,0.24081 c -0.01939,0.127 -0.03999,0.25524 -0.05374,0.38189 l -1.518772,-0.18707 c 0.02045,-0.14605 0.04133,-0.29099 0.06356,-0.43563 z m -3.210658,1.05678 c 0.506942,0 0.917774,0.41084 0.917774,0.91778 0,0.50588 -0.41189,0.91777 -0.917774,0.91777 h -0.0031 c -0.505532,-0.001 -0.916223,-0.412 -0.916223,-0.92036 0,-0.50448 0.410972,-0.91519 0.919323,-0.91519 z m 30.859629,0.01 c 0.50695,-0.004 0.91776,0.40931 0.91776,0.91519 v 0.003 c 0,0.50553 -0.41081,0.91389 -0.91776,0.91778 -0.50588,0 -0.91932,-0.41225 -0.91932,-0.91778 0,-0.5087 0.41061,-0.91777 0.91932,-0.91777 z m -3.079929,0.67231 c 0.0028,0.14747 0.0028,0.29489 0,0.44235 l -1.527037,-0.0248 c 0.0028,-0.12805 0.0028,-0.25747 0,-0.38447 z m -24.723556,0.0139 1.52704,0.0279 c -0.0013,0.13089 -0.0013,0.25862 0,0.38809 l -1.52704,0.0274 c -0.0028,-0.14851 -0.0028,-0.29592 0,-0.44338 z m 23.115384,1.5596 1.517221,0.1881 c -0.01659,0.14605 -0.0372,0.29034 -0.05943,0.43357 l -1.511535,-0.2372 c 0.02222,-0.12665 0.03999,-0.25324 0.05374,-0.38447 z m -21.505661,0.0129 c 0.01516,0.12665 0.03462,0.25489 0.05684,0.38189 l -1.51102,0.24339 c -0.02188,-0.14605 -0.04385,-0.29061 -0.06149,-0.43666 z m 21.209555,1.50482 1.475881,0.39946 c -0.03704,0.14181 -0.07838,0.28268 -0.122473,0.42167 l -1.45986,-0.44906 c 0.03704,-0.12418 0.07329,-0.2479 0.106452,-0.37207 z m -20.910351,0.0119 c 0.03598,0.12276 0.06986,0.24967 0.110072,0.37103 l -1.459344,0.45475 c -0.0441,-0.14181 -0.08522,-0.28103 -0.124021,-0.42426 z m 20.401857,1.44745 1.401463,0.60462 c -0.05644,0.13511 -0.118917,0.2692 -0.182417,0.40256 l -1.377656,-0.65883 c 0.05503,-0.11571 0.107847,-0.23118 0.158647,-0.3483 z m -19.889743,0.0124 c 0.05115,0.11854 0.105164,0.23545 0.160197,0.35399 l -1.379759,0.65422 c -0.06315,-0.13335 -0.123529,-0.26566 -0.181386,-0.40359 z m 19.175574,1.35444 1.299662,0.80305 c -0.07691,0.12418 -0.154291,0.24813 -0.237193,0.36949 l -1.270209,-0.84749 c 0.07161,-0.10619 0.140007,-0.21498 0.20774,-0.32505 z m -18.459855,0.0165 c 0.06738,0.11007 0.136126,0.21759 0.20774,0.3266 l -1.270209,0.84749 c -0.08255,-0.12275 -0.161626,-0.24815 -0.240294,-0.37515 z m 0.902272,1.25419 c 0.0829,0.0991 0.168357,0.19531 0.25373,0.29197 l -1.136883,1.02113 c -0.09631,-0.11008 -0.19294,-0.2217 -0.287838,-0.33177 z m 16.637227,0.007 1.196308,0.95343 -0.01241,0.0139 c -0.09913,0.11713 -0.188928,0.22191 -0.278534,0.32246 l -1.141015,-1.01695 c 0.08149,-0.0892 0.158731,-0.17901 0.235646,-0.27285 z m -1.05265,1.09295 1.02371,1.13533 c -0.108656,0.0995 -0.222213,0.19555 -0.33228,0.28939 l -0.982368,-1.1684 c 0.09772,-0.084 0.19604,-0.16671 0.290938,-0.25632 z m -14.510742,0.0124 c 0.09666,0.0854 0.193873,0.17083 0.293005,0.25373 l 0.03359,0.0274 -0.987018,1.16531 -0.01913,-0.0134 c -0.121002,-0.10333 -0.231376,-0.19696 -0.340032,-0.29504 z m 13.293762,0.93948 0.850077,1.26969 c -0.124177,0.0811 -0.248031,0.16341 -0.373621,0.23926 l -0.80305,-1.29914 c 0.110419,-0.0663 0.217586,-0.13679 0.326594,-0.20981 z m -12.044225,0.0289 c 0.109008,0.073 0.216313,0.14192 0.328144,0.20826 l -0.802018,1.30379 c -0.122415,-0.0787 -0.246695,-0.15725 -0.37052,-0.23874 z m 10.699089,0.73897 0.659907,1.3777 c -0.130881,0.0635 -0.265731,0.12456 -0.400494,0.18241 l -0.610815,-1.40043 c 0.117124,-0.0511 0.237102,-0.10465 0.351402,-0.15968 z m -9.353953,0.0248 c 0.115711,0.0536 0.234416,0.10733 0.352949,0.15813 l -0.606679,1.40302 c -0.133704,-0.0579 -0.268578,-0.11827 -0.39946,-0.18036 z m -6.264732,0.20051 c 0.234772,0.001 0.469516,0.0919 0.64802,0.27181 0.0053,0.005 0.0123,0.008 0.01654,0.0155 0.0053,0.004 0.0093,0.006 0.01498,0.0134 0.356655,0.35842 0.361029,0.93739 0.0016,1.29863 -0.18062,0.18027 -0.416499,0.26975 -0.652155,0.26975 -0.230011,0 -0.466874,-0.0899 -0.647507,-0.26768 -0.0028,-0.005 -0.0068,-0.009 -0.0093,-0.0109 -0.0085,-0.007 -0.01545,-0.0164 -0.02532,-0.0217 h 0.0041 c -0.360891,-0.36125 -0.358423,-0.94241 0,-1.30225 0.17921,-0.17903 0.414282,-0.26784 0.649058,-0.26665 z m 21.854996,0.008 c 0.234595,-2.7e-4 0.469328,0.0893 0.648538,0.26975 0.358424,0.35702 0.362064,0.9399 0.0026,1.29656 -0.180623,0.18062 -0.415975,0.26872 -0.651642,0.26872 -0.23142,0 -0.467111,-0.0881 -0.644922,-0.26872 -0.360889,-0.35666 -0.360651,-0.93954 -0.0026,-1.29656 0.17921,-0.17904 0.413425,-0.2694 0.648023,-0.26975 z m -7.673436,0.33331 0.457338,1.45779 c -0.140406,0.0441 -0.28244,0.0838 -0.424265,0.12506 l -0.40514,-1.47278 c 0.125587,-0.036 0.248245,-0.0727 0.372067,-0.11007 z m -6.476605,0.0191 c 0.122414,0.0385 0.245308,0.0733 0.369485,0.10645 l -0.39584,1.47382 c -0.143582,-0.037 -0.284023,-0.0782 -0.424781,-0.12093 z m 4.971788,0.33745 0.245464,1.5074 c -0.144639,0.0236 -0.290642,0.0456 -0.435631,0.0636 l -0.195339,-1.51412 c 0.129471,-0.0166 0.25745,-0.035 0.385506,-0.0568 z m -3.467487,0.01 c 0.127,0.0222 0.255374,0.0386 0.38344,0.0537 l -0.187587,1.51722 c -0.143227,-0.0177 -0.290338,-0.0387 -0.433565,-0.062 z m 1.925463,0.13074 0.03152,1.52808 c -0.14605,0.003 -0.291788,0.004 -0.439251,0.002 l 0.02222,-1.52653 c 0.128058,0.001 0.257448,0.001 0.385506,-0.003 z m -0.187584,3.69332 c 0.508704,-0.004 0.919297,0.40492 0.920356,0.91364 0,0.50835 -0.411374,0.91767 -0.917258,0.9219 -0.508352,0 -0.919297,-0.40942 -0.920355,-0.91777 0,-0.50871 0.408902,-0.91777 0.917257,-0.91777 z"
         id="path9949" />
      <path
         id="path9961"
         style="fill:#0d0d0d;fill-opacity:1;fill-rule:nonzero;stroke:none;stroke-width:0.35277775"
         d="m 113.11192,149.29697 4.57094,7.91421 h -9.14047 z m 0,-1.91665 -6.23147,10.78971 h 12.46434 z" />
      <path
         id="path9963"
         style="fill:#0d0d0d;fill-opacity:1;fill-rule:nonzero;stroke:none;stroke-width:0.35277775"
         d="m 61.293449,149.29697 4.570942,7.91421 h -9.141883 z m 0,-1.91665 -6.230055,10.78971 h 12.461522 z" />
      <path
         id="path9965"
         style="fill:#0d0d0d;fill-opacity:1;fill-rule:nonzero;stroke:none;stroke-width:0.35277775"
         d="m 87.228259,104.28746 4.569531,7.91563 h -9.140473 z m 0,-1.91664 -6.232877,10.79112 h 12.464344 z" />
    </g>
  </g>
</svg>
