<?xml version="1.0" encoding="UTF-8" standalone="no"?>
<svg
   xmlns:dc="http://purl.org/dc/elements/1.1/"
   xmlns:cc="http://creativecommons.org/ns#"
   xmlns:rdf="http://www.w3.org/1999/02/22-rdf-syntax-ns#"
   xmlns:svg="http://www.w3.org/2000/svg"
   xmlns="http://www.w3.org/2000/svg"
   id="svg11810"
   version="1.1"
   viewBox="0 0 50 24.999999"
   height="25mm"
   width="50mm">
  <defs
     id="defs11804" />
  <metadata
     id="metadata11807">
    <rdf:RDF>
      <cc:Work
         rdf:about="">
        <dc:format>image/svg+xml</dc:format>
        <dc:type
           rdf:resource="http://purl.org/dc/dcmitype/StillImage" />
        <dc:title></dc:title>
      </cc:Work>
    </rdf:RDF>
  </metadata>
  <g
     transform="translate(0,-272)"
     id="layer1">
    <g
       transform="translate(-2.0608519,2.3552593)"
       id="g16418">
      <path
         d="m 18.751495,281.28124 c 0.0441,0.10337 0.08114,0.22719 0.110067,0.37606 0.0441,0.14464 0.06632,0.27693 0.06632,0.39406 v 12.02901 c 0,0.11854 -0.0441,0.22049 -0.132292,0.30868 -0.07303,0.073 -0.168275,0.10901 -0.286808,0.10901 h -3.060347 c -0.117122,0 -0.213783,-0.036 -0.286808,-0.10901 -0.07444,-0.0882 -0.108656,-0.19014 -0.108656,-0.30868 v -11.25714 h -2.468384 v 11.25714 c 0,0.11854 -0.03704,0.22049 -0.111477,0.30868 -0.07303,0.073 -0.166864,0.10901 -0.283986,0.10901 H 9.4124097 c -0.118534,0 -0.220486,-0.036 -0.308681,-0.10901 -0.07444,-0.0882 -0.108655,-0.19014 -0.108655,-0.30868 v -11.25714 h -2.468034 v 11.25714 c 0,0.27976 -0.140758,0.41769 -0.4191,0.41769 h -3.039886 c -0.279753,0 -0.4191,-0.13793 -0.4191,-0.41769 v -14.58242 c 0,-0.11712 0.03739,-0.21343 0.11042,-0.28787 0.08819,-0.0882 0.191558,-0.13229 0.30868,-0.13229 H 15.932095 c 0.118534,0 0.250825,0.0233 0.396875,0.0674 0.16122,0.0303 0.293511,0.0649 0.396875,0.10901 z"
         style="fill:#0d0d0d;fill-opacity:1;fill-rule:nonzero;stroke:none;stroke-width:0.35277775"
         id="path8479" />
      <path
         d="m 26.285065,294.08037 c 0,0.27976 -0.138995,0.41769 -0.418748,0.41769 h -3.038475 c -0.279752,0 -0.4191,-0.13793 -0.4191,-0.41769 v -14.58242 c 0,-0.27834 0.139348,-0.42016 0.4191,-0.42016 h 3.038475 c 0.279753,0 0.418748,0.14182 0.418748,0.42016 z"
         style="fill:#0d0d0d;fill-opacity:1;fill-rule:nonzero;stroke:none;stroke-width:0.35277775"
         id="path8481" />
      <path
         d="m 42.519898,281.28124 c 0.0441,0.10337 0.0811,0.22719 0.11007,0.37606 0.0441,0.14464 0.0663,0.27693 0.0663,0.39406 v 12.02901 c 0,0.11854 -0.0441,0.22049 -0.1323,0.30868 -0.073,0.073 -0.16827,0.10901 -0.2868,0.10901 h -3.05894 c -0.11853,0 -0.22049,-0.036 -0.30868,-0.10901 -0.0744,-0.0882 -0.11183,-0.19014 -0.11183,-0.30868 v -10.86026 c 0,-0.11853 -0.037,-0.21378 -0.10866,-0.28681 -0.073,-0.073 -0.17109,-0.11007 -0.28822,-0.11007 h -4.36139 c -0.11712,0 -0.22048,0.0371 -0.30868,0.11007 -0.073,0.073 -0.11042,0.16828 -0.11042,0.28681 v 10.86026 c 0,0.27976 -0.13899,0.41769 -0.41592,0.41769 h -3.04024 c -0.2794,0 -0.42016,-0.13793 -0.42016,-0.41769 v -14.58242 c 0,-0.11712 0.0385,-0.21343 0.11148,-0.28787 0.0882,-0.0882 0.1905,-0.13229 0.30868,-0.13229 h 9.5377 c 0.11712,0 0.24941,0.0233 0.39687,0.0674 0.16122,0.0303 0.29351,0.0649 0.39688,0.10901 z"
         style="fill:#0d0d0d;fill-opacity:1;fill-rule:nonzero;stroke:none;stroke-width:0.35277775"
         id="path8483" />
      <path
         d="m 50.053468,294.08037 c 0,0.27976 -0.139,0.41769 -0.41875,0.41769 h -3.03847 c -0.27975,0 -0.4191,-0.13793 -0.4191,-0.41769 v -14.58242 c 0,-0.27834 0.13935,-0.42016 0.4191,-0.42016 h 3.03847 c 0.27975,0 0.41875,0.14182 0.41875,0.42016 z"
         style="fill:#0d0d0d;fill-opacity:1;fill-rule:nonzero;stroke:none;stroke-width:0.35277775"
         id="path8485" />
      <path
         d="m 50.570288,275.38738 h 0.11571 c 0.0744,0 0.13088,-0.0194 0.16969,-0.0526 0.037,-0.0314 0.0579,-0.0744 0.0579,-0.12947 0,-0.0688 -0.0208,-0.10724 -0.0593,-0.13652 -0.0374,-0.0289 -0.0977,-0.0452 -0.17357,-0.0452 -0.0578,0 -0.0868,0.007 -0.11042,0.01 z m -0.19967,0.71791 c -0.0208,-0.001 -0.0374,-0.0208 -0.0374,-0.0413 v -1.17686 c 0,-0.018 0.0138,-0.0374 0.0332,-0.0413 0.0825,-0.0166 0.19579,-0.0265 0.30303,-0.0265 0.16969,0 0.28822,0.0346 0.37218,0.10901 0.0716,0.0621 0.1076,0.15452 0.1076,0.25788 0,0.14182 -0.0759,0.248 -0.18062,0.30833 0.0663,0.0512 0.1076,0.13264 0.13088,0.23177 0.0388,0.16652 0.0702,0.28646 0.0882,0.31962 0.0138,0.0275 -0.005,0.0593 -0.037,0.0593 h -0.1584 c -0.0166,0 -0.0303,-0.01 -0.0374,-0.0233 -0.0138,-0.0222 -0.0233,-0.0582 -0.037,-0.10759 -0.0138,-0.0483 -0.0289,-0.11183 -0.0455,-0.18733 -0.0166,-0.0787 -0.0388,-0.12559 -0.0677,-0.1531 -0.0289,-0.0289 -0.066,-0.0427 -0.12946,-0.0455 h -0.10337 v 0.47554 c 0,0.0233 -0.0194,0.0413 -0.0413,0.0413 z"
         style="fill:#0d0d0d;fill-opacity:1;fill-rule:nonzero;stroke:none;stroke-width:0.35277775"
         id="path8487" />
      <path
         d="m 50.711048,274.66384 c 0.45473,0 0.81844,0.36512 0.81844,0.81844 0,0.45473 -0.36371,0.81739 -0.81844,0.81739 -0.45226,0 -0.81739,-0.36266 -0.81739,-0.81739 0,-0.45332 0.36513,-0.81844 0.81739,-0.81844 m 0,-0.31433 c -0.62301,0 -1.13277,0.50871 -1.13277,1.13277 0,0.62301 0.50976,1.13136 1.13277,1.13136 0.62265,0 1.13136,-0.50835 1.13136,-1.13136 0,-0.62406 -0.5073,-1.13277 -1.13136,-1.13277"
         style="fill:#0d0d0d;fill-opacity:1;fill-rule:nonzero;stroke:none;stroke-width:0.35277775"
         id="path8489" />
      <path
         d="m 6.8025597,274.91325 c 0.0508,0 0.09102,0.0166 0.121355,0.0497 0.0314,0.0356 0.04657,0.0769 0.04657,0.12665 v 1.21814 c 0,0.0483 -0.01517,0.091 -0.04657,0.12418 -0.03034,0.0342 -0.07055,0.0522 -0.121355,0.0522 h -3.989564 c -0.117122,5e-5 -0.174978,-0.0592 -0.174978,-0.17634 v -6.11434 c 0,-0.11571 0.05786,-0.17498 0.174978,-0.17498 h 1.275997 c 0.117122,0 0.174978,0.0593 0.174978,0.17498 v 4.55436 c 0,0.0483 0.01658,0.0882 0.04974,0.11853 0.03457,0.0317 0.07444,0.0469 0.126647,0.0469 z"
         style="fill:#0d0d0d;fill-opacity:1;fill-rule:nonzero;stroke:none;stroke-width:0.35277775"
         id="path8491" />
      <path
         d="m 14.168207,270.0682 c 0.03422,0.0342 0.0508,0.0758 0.0508,0.12524 v 5.07118 h -0.0095 c 0,0.0483 -0.0056,0.10054 -0.01799,0.15593 -0.01235,0.055 -0.02893,0.10195 -0.04551,0.13899 l -0.850195,0.84878 c -0.0441,0.025 -0.09772,0.0427 -0.16263,0.0554 -0.0635,0.0124 -0.119945,0.0191 -0.170745,0.0191 h -2.927022 c -0.04974,0 -0.1047753,-0.007 -0.1668643,-0.0191 -0.06068,-0.0127 -0.1143,-0.0303 -0.156986,-0.0554 l -0.850194,-0.84878 c -0.02223,-0.0427 -0.04128,-0.0963 -0.05398,-0.1584 -0.01235,-0.0607 -0.01905,-0.11571 -0.01905,-0.16404 v -5.04366 c 0,-0.0494 0.01799,-0.091 0.0508,-0.12524 0.03316,-0.0332 0.07444,-0.0497 0.124178,-0.0497 h 1.2745863 c 0.04974,0 0.09102,0.0166 0.126647,0.0497 0.03175,0.0342 0.04974,0.0758 0.04974,0.12524 v 4.55295 c 0,0.0497 0.01658,0.0924 0.04974,0.12418 0.03563,0.0346 0.07691,0.0511 0.125236,0.0511 h 1.8288 c 0.04939,0 0.09102,-0.0166 0.121356,-0.0511 0.02999,-0.0318 0.04515,-0.0744 0.04515,-0.12418 v -4.55295 c 0,-0.0494 0.01658,-0.091 0.04974,-0.12524 0.03457,-0.0331 0.07585,-0.0497 0.126646,-0.0497 h 1.281642 c 0.04974,0 0.09102,0.0166 0.125589,0.0497"
         style="fill:#0d0d0d;fill-opacity:1;fill-rule:nonzero;stroke:none;stroke-width:0.35277775"
         id="path8493" />
      <path
         d="m 20.766209,274.91325 c 0.0508,0 0.08961,0.0166 0.122767,0.0497 0.02999,0.0356 0.04515,0.0769 0.04515,0.12665 v 1.21814 c 0,0.0483 -0.01517,0.091 -0.04515,0.12418 -0.03316,0.0342 -0.07197,0.0522 -0.122767,0.0522 h -3.989564 c -0.117122,0 -0.174977,-0.0593 -0.174977,-0.17639 v -6.11434 c 0,-0.11571 0.05785,-0.17498 0.174977,-0.17498 h 1.275998 c 0.117122,0 0.17533,0.0593 0.17533,0.17498 v 4.55436 c 0,0.0483 0.01764,0.0882 0.04939,0.11853 0.03457,0.0317 0.07585,0.0469 0.127,0.0469 z"
         style="fill:#0d0d0d;fill-opacity:1;fill-rule:nonzero;stroke:none;stroke-width:0.35277775"
         id="path8495" />
      <path
         d="m 27.683828,271.35796 c 0,0.0483 -0.0124,0.10195 -0.0356,0.15698 -0.025,0.054 -0.054,0.10196 -0.08431,0.13794 l -3.001081,3.37891 h 2.946048 c 0.05115,0 0.09102,0.018 0.124173,0.0522 0.0342,0.0346 0.0508,0.0758 0.0508,0.12417 v 1.09961 c 0,0.0483 -0.0166,0.091 -0.0508,0.12418 -0.0332,0.0342 -0.07303,0.0522 -0.124173,0.0522 H 22.91854 c -0.117122,0 -0.176389,-0.0593 -0.176389,-0.17639 v -1.15464 c 0,-0.0483 0.0127,-0.10336 0.03316,-0.16263 0.02222,-0.0579 0.04692,-0.10477 0.07867,-0.14217 l 3.065992,-3.38032 h -2.946048 c -0.04974,0 -0.09102,-0.0176 -0.124177,-0.0508 -0.03457,-0.0332 -0.0508,-0.0744 -0.0508,-0.12417 v -1.09961 c 0,-0.0483 0.01623,-0.0896 0.0508,-0.12524 0.03316,-0.0332 0.07444,-0.0497 0.124177,-0.0497 h 4.534959 c 0.05115,0 0.09102,0.0166 0.124174,0.0497 0.0342,0.0356 0.0508,0.0769 0.0508,0.12524 z"
         style="fill:#0d0d0d;fill-opacity:1;fill-rule:nonzero;stroke:none;stroke-width:0.35277775"
         id="path8497" />
      <path
         d="m 35.432598,270.94168 c 0.018,0.0441 0.036,0.0967 0.0522,0.15981 0.0141,0.0649 0.0208,0.12276 0.0208,0.17251 v 1.02517 c 0,0.0497 -0.008,0.10336 -0.0318,0.16122 -0.0204,0.0578 -0.048,0.10618 -0.0773,0.14464 l -0.39654,0.50588 c -0.0303,0.0384 -0.0469,0.084 -0.043,0.14041 0.004,0.0536 0.0194,0.0967 0.0512,0.12805 l 0.37748,0.46179 c 0.0318,0.037 0.0593,0.0854 0.0843,0.14464 0.0233,0.0579 0.0356,0.11042 0.0356,0.16122 v 1.09008 c 0,0.0483 -0.007,0.10337 -0.0208,0.16404 -0.0148,0.0621 -0.0314,0.11571 -0.0522,0.1584 l -0.8502,0.85019 c -0.0427,0.0236 -0.0967,0.0413 -0.16122,0.054 -0.0649,0.0124 -0.12136,0.0205 -0.1711,0.0205 h -3.99873 c -0.11713,0 -0.17533,-0.0593 -0.17533,-0.17639 v -6.11434 c 0,-0.0494 0.0166,-0.0896 0.0511,-0.12524 0.0346,-0.0332 0.0744,-0.0497 0.12418,-0.0497 h 3.99874 c 0.0497,0 0.10618,0.007 0.17109,0.0222 0.0646,0.0152 0.11854,0.0314 0.16122,0.0522 z m -3.88726,1.63583 h 2.48461 v -1.15605 h -2.48461 z m 0,2.49132 h 2.48461 v -1.25519 h -2.48461 z"
         style="fill:#0d0d0d;fill-opacity:1;fill-rule:nonzero;stroke:none;stroke-width:0.35277775"
         id="path8499" />
      <path
         d="m 43.199348,270.94168 c 0.0204,0.0441 0.0356,0.0953 0.0508,0.15593 0.0166,0.0617 0.0236,0.11712 0.0236,0.16792 v 3.97157 c 0,0.0483 -0.007,0.10337 -0.0236,0.16404 -0.0152,0.0621 -0.0303,0.11571 -0.0508,0.1584 l -0.84773,0.85019 c -0.0441,0.0236 -0.0991,0.0413 -0.16262,0.054 -0.0646,0.0124 -0.12242,0.0205 -0.17216,0.0205 h -2.927 c -0.0494,0 -0.10336,-0.008 -0.16545,-0.0205 -0.0617,-0.0127 -0.1143,-0.0303 -0.1584,-0.054 l -0.84878,-0.85019 c -0.0247,-0.0427 -0.0441,-0.0963 -0.055,-0.1584 -0.0124,-0.0607 -0.0194,-0.11571 -0.0194,-0.16404 v -3.97157 c 0,-0.0508 0.007,-0.10619 0.0194,-0.16792 0.0124,-0.0607 0.0303,-0.11183 0.055,-0.15593 l 0.84878,-0.84878 c 0.0441,-0.0208 0.0967,-0.0371 0.1584,-0.0522 0.0621,-0.0152 0.11606,-0.0222 0.16545,-0.0222 h 2.927 c 0.0497,0 0.1076,0.007 0.17216,0.0222 0.0635,0.0152 0.11853,0.0314 0.16262,0.0522 z m -1.55998,0.6477 h -2.16923 v 3.33234 h 2.16923 z"
         style="fill:#0d0d0d;fill-opacity:1;fill-rule:nonzero;stroke:none;stroke-width:0.35277775"
         id="path8501" />
      <path
         d="m 50.079928,271.41158 c 0,0.0497 -0.0166,0.0924 -0.0511,0.12559 -0.0332,0.0332 -0.0744,0.0508 -0.12277,0.0508 h -1.31304 c -0.0497,0 -0.091,0.0166 -0.12559,0.0469 -0.0328,0.0303 -0.0494,0.0702 -0.0494,0.11853 v 4.55295 c 0,0.0497 -0.0152,0.0924 -0.0469,0.12559 -0.0303,0.0328 -0.0702,0.0508 -0.11994,0.0508 h -1.28306 c -0.0494,0 -0.0896,-0.018 -0.12523,-0.0508 -0.0346,-0.0332 -0.0512,-0.0759 -0.0512,-0.12559 v -4.55295 c 0,-0.0483 -0.0138,-0.0882 -0.0441,-0.11853 -0.0328,-0.0303 -0.073,-0.0469 -0.121,-0.0469 h -1.31199 c -0.0497,0 -0.091,-0.0176 -0.12417,-0.0508 -0.0342,-0.0332 -0.0522,-0.0759 -0.0522,-0.12559 v -1.21814 c 0,-0.11571 0.0593,-0.17498 0.17639,-0.17498 h 4.5914 c 0.0483,0 0.0896,0.0166 0.12277,0.0497 0.0346,0.0342 0.0511,0.0758 0.0511,0.12524 z"
         style="fill:#0d0d0d;fill-opacity:1;fill-rule:nonzero;stroke:none;stroke-width:0.35277775"
         id="path8503" />
    </g>
  </g>
</svg>
