<?xml version="1.0" encoding="UTF-8" standalone="no"?>
<!-- Created with Inkscape (http://www.inkscape.org/) -->

<svg
   xmlns:dc="http://purl.org/dc/elements/1.1/"
   xmlns:cc="http://creativecommons.org/ns#"
   xmlns:rdf="http://www.w3.org/1999/02/22-rdf-syntax-ns#"
   xmlns:svg="http://www.w3.org/2000/svg"
   xmlns="http://www.w3.org/2000/svg"
   xmlns:sodipodi="http://sodipodi.sourceforge.net/DTD/sodipodi-0.dtd"
   xmlns:inkscape="http://www.inkscape.org/namespaces/inkscape"
   width="1.25in"
   height="1.75in"
   viewBox="0 0 31.75 44.45"
   version="1.1"
   id="svg8"
   inkscape:version="0.92.1 r15371"
   sodipodi:docname="hotSymbol_andSize_03.svg">
  <defs
     id="defs2" />
  <sodipodi:namedview
     id="base"
     pagecolor="#ffffff"
     bordercolor="#666666"
     borderopacity="1.0"
     inkscape:pageopacity="0.0"
     inkscape:pageshadow="2"
     inkscape:zoom="3.2596234"
     inkscape:cx="35.889742"
     inkscape:cy="64.602204"
     inkscape:document-units="in"
     inkscape:current-layer="layer1"
     showgrid="false"
     showguides="true"
     inkscape:guide-bbox="true"
     inkscape:window-width="1920"
     inkscape:window-height="971"
     inkscape:window-x="0"
     inkscape:window-y="31"
     inkscape:window-maximized="1"
     units="in">
    <sodipodi:guide
       position="3.1250415,32.265039"
       orientation="5.5742179,0"
       id="guide856"
       inkscape:locked="false" />
    <sodipodi:guide
       position="6.3499999,24.870818"
       orientation="57.999969,0"
       id="guide884"
       inkscape:locked="false" />
    <sodipodi:guide
       position="6.3499999,9.5249931"
       orientation="0,47.999997"
       id="guide886"
       inkscape:locked="false" />
    <sodipodi:guide
       position="14.082979,6.3718381"
       orientation="0,1"
       id="guide905"
       inkscape:locked="false" />
  </sodipodi:namedview>
  <metadata
     id="metadata5">
    <rdf:RDF>
      <cc:Work
         rdf:about="">
        <dc:format>image/svg+xml</dc:format>
        <dc:type
           rdf:resource="http://purl.org/dc/dcmitype/StillImage" />
        <dc:title></dc:title>
      </cc:Work>
    </rdf:RDF>
  </metadata>
  <g
     inkscape:groupmode="layer"
     id="layer2"
     inkscape:label="Background"
     transform="translate(0,17.450003)">
    <path
       id="path933"
       d="m 9.4769866,-8.4500839 a 3.1753175,3.1753175 0 0 0 -3.1734498,3.1739665 v 18.1249914 1.447457 a 3.1753175,3.1753175 0 0 0 0.015502,0.31781 c 0.043233,0.432967 0.1741726,0.840056 0.3736205,1.204062 0.04968,0.09067 0.1032315,0.17853 0.1612305,0.263549 a 3.1753175,3.1753175 0 0 0 0.066663,0.08888 c 0.038726,0.05272 0.077022,0.105897 0.1188556,0.156062 a 3.1753175,3.1753175 0 0 0 0.093018,0.102835 c 0.039105,0.04295 0.077475,0.08638 0.1188559,0.127125 a 3.1753175,3.1753175 0 0 0 0.098702,0.0894 c 0.044552,0.04036 0.088594,0.08105 0.1353924,0.118856 a 3.1753175,3.1753175 0 0 0 0.098185,0.07338 c 0.051752,0.03862 0.1034947,0.07718 0.1576131,0.112654 a 3.1753175,3.1753175 0 0 0 0.095085,0.05788 c 0.0582,0.0353 0.1166791,0.0697 0.1772502,0.101285 a 3.1753175,3.1753175 0 0 0 0.095601,0.04599 c 0.062064,0.02976 0.124401,0.05898 0.1886191,0.08475 a 3.1753175,3.1753175 0 0 0 0.1028361,0.03773 c 0.064877,0.02344 0.1301234,0.04585 0.1968871,0.06511 a 3.1753175,3.1753175 0 0 0 0.1121378,0.02842 c 0.061205,0.01527 0.1224486,0.03021 0.1850017,0.04186 a 3.1753175,3.1753175 0 0 0 0.1400431,0.0217 c 0.058117,0.0081 0.1161013,0.01572 0.175183,0.02066 a 3.1753175,3.1753175 0 0 0 0.2671673,0.01344 h 2.0257178 7.4998 c 1.753279,2.56e-4 3.175212,-1.42017 3.176034,-3.173449 v -1.447449 c 2.64e-4,-0.558159 -0.146622,-1.106252 -0.425814,-1.589567 L 16.988673,3.0148492 C 16.496711,2.1628318 15.640051,1.5972003 14.676153,1.4630061 v -6.7391235 a 3.1753175,3.1753175 0 0 0 -3.17345,-3.1739665 z"
       style="color:#000000;font-style:normal;font-variant:normal;font-weight:normal;font-stretch:normal;font-size:medium;line-height:normal;font-family:sans-serif;font-variant-ligatures:normal;font-variant-position:normal;font-variant-caps:normal;font-variant-numeric:normal;font-variant-alternates:normal;font-feature-settings:normal;text-indent:0;text-align:start;text-decoration:none;text-decoration-line:none;text-decoration-style:solid;text-decoration-color:#000000;letter-spacing:normal;word-spacing:normal;text-transform:none;writing-mode:lr-tb;direction:ltr;text-orientation:mixed;dominant-baseline:auto;baseline-shift:baseline;text-anchor:start;white-space:normal;shape-padding:0;clip-rule:nonzero;display:inline;overflow:visible;visibility:visible;opacity:1;isolation:auto;mix-blend-mode:normal;color-interpolation:sRGB;color-interpolation-filters:linearRGB;solid-color:#000000;solid-opacity:1;vector-effect:none;fill:#000000;fill-opacity:1;fill-rule:nonzero;stroke:#000000;stroke-width:6.3499999;stroke-linecap:round;stroke-linejoin:round;stroke-miterlimit:4;stroke-dasharray:none;stroke-dashoffset:0;stroke-opacity:1;paint-order:markers fill stroke;color-rendering:auto;image-rendering:auto;shape-rendering:auto;text-rendering:auto;enable-background:accumulate"
       inkscape:connector-curvature="0" />
    <path
       style="color:#000000;font-style:normal;font-variant:normal;font-weight:normal;font-stretch:normal;font-size:medium;line-height:normal;font-family:sans-serif;font-variant-ligatures:normal;font-variant-position:normal;font-variant-caps:normal;font-variant-numeric:normal;font-variant-alternates:normal;font-feature-settings:normal;text-indent:0;text-align:start;text-decoration:none;text-decoration-line:none;text-decoration-style:solid;text-decoration-color:#000000;letter-spacing:normal;word-spacing:normal;text-transform:none;writing-mode:lr-tb;direction:ltr;text-orientation:mixed;dominant-baseline:auto;baseline-shift:baseline;text-anchor:start;white-space:normal;shape-padding:0;clip-rule:nonzero;display:inline;overflow:visible;visibility:visible;opacity:1;isolation:auto;mix-blend-mode:normal;color-interpolation:sRGB;color-interpolation-filters:linearRGB;solid-color:#000000;solid-opacity:1;vector-effect:none;fill:#000000;fill-opacity:1;fill-rule:nonzero;stroke:none;stroke-width:6.3499999;stroke-linecap:round;stroke-linejoin:round;stroke-miterlimit:4;stroke-dasharray:none;stroke-dashoffset:0;stroke-opacity:1;paint-order:markers fill stroke;color-rendering:auto;image-rendering:auto;shape-rendering:auto;text-rendering:auto;enable-background:accumulate"
       d="m 9.4769866,-8.4500839 a 3.1753175,3.1753175 0 0 0 -3.1734498,3.1739665 v 18.1249914 1.447457 a 3.1753175,3.1753175 0 0 0 0.015502,0.31781 c 0.043233,0.432967 0.1741726,0.840056 0.3736205,1.204062 0.04968,0.09067 0.1032315,0.17853 0.1612305,0.263549 a 3.1753175,3.1753175 0 0 0 0.066663,0.08888 c 0.038726,0.05272 0.077022,0.105897 0.1188556,0.156062 a 3.1753175,3.1753175 0 0 0 0.093018,0.102835 c 0.039105,0.04295 0.077475,0.08638 0.1188559,0.127125 a 3.1753175,3.1753175 0 0 0 0.098702,0.0894 c 0.044552,0.04036 0.088594,0.08105 0.1353924,0.118856 a 3.1753175,3.1753175 0 0 0 0.098185,0.07338 c 0.051752,0.03862 0.1034947,0.07718 0.1576131,0.112654 a 3.1753175,3.1753175 0 0 0 0.095085,0.05788 c 0.0582,0.0353 0.1166791,0.0697 0.1772502,0.101285 a 3.1753175,3.1753175 0 0 0 0.095601,0.04599 c 0.062064,0.02976 0.124401,0.05898 0.1886191,0.08475 a 3.1753175,3.1753175 0 0 0 0.1028361,0.03773 c 0.064877,0.02344 0.1301234,0.04585 0.1968871,0.06511 a 3.1753175,3.1753175 0 0 0 0.1121378,0.02842 c 0.061205,0.01527 0.1224486,0.03021 0.1850017,0.04186 a 3.1753175,3.1753175 0 0 0 0.1400431,0.0217 c 0.058117,0.0081 0.1161013,0.01572 0.175183,0.02066 a 3.1753175,3.1753175 0 0 0 0.2671673,0.01344 h 2.0257178 7.4998 c 1.753279,2.56e-4 3.175212,-1.42017 3.176034,-3.173449 v -1.447449 c 2.64e-4,-0.558159 -0.146622,-1.106252 -0.425814,-1.589567 L 16.988673,3.0148492 C 16.496711,2.1628318 15.640051,1.5972003 14.676153,1.4630061 v -6.7391235 a 3.1753175,3.1753175 0 0 0 -3.17345,-3.1739665 z"
       id="path894"
       inkscape:connector-curvature="0" />
    <path
       id="path931"
       d="m 9.4769866,-8.4500839 a 3.1753175,3.1753175 0 0 0 -3.1734498,3.1739665 v 18.1249914 1.447457 a 3.1753175,3.1753175 0 0 0 0.015502,0.31781 c 0.043233,0.432967 0.1741726,0.840056 0.3736205,1.204062 0.04968,0.09067 0.1032315,0.17853 0.1612305,0.263549 a 3.1753175,3.1753175 0 0 0 0.066663,0.08888 c 0.038726,0.05272 0.077022,0.105897 0.1188556,0.156062 a 3.1753175,3.1753175 0 0 0 0.093018,0.102835 c 0.039105,0.04295 0.077475,0.08638 0.1188559,0.127125 a 3.1753175,3.1753175 0 0 0 0.098702,0.0894 c 0.044552,0.04036 0.088594,0.08105 0.1353924,0.118856 a 3.1753175,3.1753175 0 0 0 0.098185,0.07338 c 0.051752,0.03862 0.1034947,0.07718 0.1576131,0.112654 a 3.1753175,3.1753175 0 0 0 0.095085,0.05788 c 0.0582,0.0353 0.1166791,0.0697 0.1772502,0.101285 a 3.1753175,3.1753175 0 0 0 0.095601,0.04599 c 0.062064,0.02976 0.124401,0.05898 0.1886191,0.08475 a 3.1753175,3.1753175 0 0 0 0.1028361,0.03773 c 0.064877,0.02344 0.1301234,0.04585 0.1968871,0.06511 a 3.1753175,3.1753175 0 0 0 0.1121378,0.02842 c 0.061205,0.01527 0.1224486,0.03021 0.1850017,0.04186 a 3.1753175,3.1753175 0 0 0 0.1400431,0.0217 c 0.058117,0.0081 0.1161013,0.01572 0.175183,0.02066 a 3.1753175,3.1753175 0 0 0 0.2671673,0.01344 h 2.0257178 7.4998 c 1.753279,2.56e-4 3.175212,-1.42017 3.176034,-3.173449 v -1.447449 c 2.64e-4,-0.558159 -0.146622,-1.106252 -0.425814,-1.589567 L 16.988673,3.0148492 C 16.496711,2.1628318 15.640051,1.5972003 14.676153,1.4630061 v -6.7391235 a 3.1753175,3.1753175 0 0 0 -3.17345,-3.1739665 z"
       style="color:#000000;font-style:normal;font-variant:normal;font-weight:normal;font-stretch:normal;font-size:medium;line-height:normal;font-family:sans-serif;font-variant-ligatures:normal;font-variant-position:normal;font-variant-caps:normal;font-variant-numeric:normal;font-variant-alternates:normal;font-feature-settings:normal;text-indent:0;text-align:start;text-decoration:none;text-decoration-line:none;text-decoration-style:solid;text-decoration-color:#000000;letter-spacing:normal;word-spacing:normal;text-transform:none;writing-mode:lr-tb;direction:ltr;text-orientation:mixed;dominant-baseline:auto;baseline-shift:baseline;text-anchor:start;white-space:normal;shape-padding:0;clip-rule:nonzero;display:inline;overflow:visible;visibility:visible;opacity:1;isolation:auto;mix-blend-mode:normal;color-interpolation:sRGB;color-interpolation-filters:linearRGB;solid-color:#000000;solid-opacity:1;vector-effect:none;fill:none;fill-opacity:1;fill-rule:nonzero;stroke:#ff00ff;stroke-width:0.17638889;stroke-linecap:round;stroke-linejoin:round;stroke-miterlimit:4;stroke-dasharray:none;stroke-dashoffset:0;stroke-opacity:1;paint-order:markers fill stroke;color-rendering:auto;image-rendering:auto;shape-rendering:auto;text-rendering:auto;enable-background:accumulate"
       inkscape:connector-curvature="0" />
  </g>
  <g
     inkscape:label="Copy"
     inkscape:groupmode="layer"
     id="layer1"
     transform="translate(0,-252.54999)"
     style="display:inline">
    <g
       id="g4573"
       transform="matrix(0.8197326,0,0,0.8197326,4.3839402,48.246788)">
      <path
         style="fill:#b3b3b3;fill-opacity:1;stroke-width:0.01937413"
         id="sign_border-2"
         d="m 17.791189,285.82529 -5.49838,-9.52433 c -0.05618,-0.0969 -0.158866,-0.15499 -0.269299,-0.15499 -0.11043,0 -0.213117,0.0601 -0.269301,0.15499 l -5.49838,9.52433 c -0.056187,0.0969 -0.056187,0.21505 0,0.30998 0.056198,0.0969 0.1588673,0.155 0.2693005,0.155 H 17.521889 c 0.11043,0 0.213116,-0.0601 0.2693,-0.155 0.05619,-0.0969 0.05619,-0.21505 0,-0.30998 z"
         inkscape:connector-curvature="0" />
      <path
         inkscape:connector-curvature="0"
         style="fill:#000000;fill-opacity:1;stroke-width:0.01937413"
         d="m 12.02351,277.07981 4.959779,8.58855 H 7.0637293 v 0 z"
         id="sign_bg-3" />
      <path
         inkscape:connector-curvature="0"
         style="fill:#b3b3b3;fill-opacity:1;stroke:#000000;stroke-width:0.01235674;stroke-linecap:square;stroke-miterlimit:4;stroke-dasharray:none;stroke-dashoffset:0;stroke-opacity:1"
         d="m 9.5478458,284.93394 h 4.9513292 v 0.30596 H 9.5478458 Z"
         id="rect2820" />
      <path
         inkscape:connector-curvature="0"
         id="path3713"
         d="m 10.669854,280.52183 c -0.296559,0.41332 -0.38032,0.79659 -0.342766,1.14314 0.03755,0.34654 0.186483,0.6511 0.326741,0.94213 0.14026,0.29102 0.271921,0.56864 0.305374,0.85528 0.03346,0.28664 -0.02152,0.587 -0.28149,0.95868 l 0.225023,0.15739 c 0.290867,-0.41586 0.369731,-0.80076 0.329214,-1.14791 -0.04052,-0.34714 -0.190624,-0.65186 -0.330758,-0.94265 -0.140132,-0.29077 -0.270206,-0.56748 -0.301091,-0.8525 -0.03089,-0.28503 0.0275,-0.58367 0.292835,-0.95347 z"
         style="color:#000000;font-style:normal;font-variant:normal;font-weight:normal;font-stretch:normal;font-size:medium;line-height:normal;font-family:sans-serif;text-indent:0;text-align:start;text-decoration:none;text-decoration-line:none;text-decoration-style:solid;text-decoration-color:#000000;letter-spacing:normal;word-spacing:normal;text-transform:none;writing-mode:lr-tb;direction:ltr;baseline-shift:baseline;text-anchor:start;white-space:normal;clip-rule:nonzero;display:inline;overflow:visible;visibility:visible;opacity:1;isolation:auto;mix-blend-mode:normal;color-interpolation:sRGB;color-interpolation-filters:linearRGB;solid-color:#000000;solid-opacity:1;fill:#b3b3b3;fill-opacity:1;fill-rule:nonzero;stroke:none;stroke-width:0.27459407;stroke-linecap:butt;stroke-linejoin:miter;stroke-miterlimit:4;stroke-dasharray:none;stroke-dashoffset:0;stroke-opacity:1;color-rendering:auto;image-rendering:auto;shape-rendering:auto;text-rendering:auto;enable-background:accumulate" />
      <path
         inkscape:connector-curvature="0"
         id="path4600"
         d="m 11.91307,280.52183 c -0.296561,0.41332 -0.38032,0.79659 -0.342767,1.14314 0.03755,0.34654 0.186484,0.6511 0.326741,0.94213 0.140261,0.29102 0.271922,0.56864 0.305374,0.85528 0.03346,0.28664 -0.02152,0.587 -0.281489,0.95868 l 0.225023,0.15739 c 0.290867,-0.41586 0.369731,-0.80076 0.329214,-1.14791 -0.04052,-0.34714 -0.190624,-0.65186 -0.330759,-0.94265 -0.140131,-0.29077 -0.270205,-0.56748 -0.30109,-0.8525 -0.03089,-0.28503 0.0275,-0.58367 0.292835,-0.95347 z"
         style="color:#000000;font-style:normal;font-variant:normal;font-weight:normal;font-stretch:normal;font-size:medium;line-height:normal;font-family:sans-serif;text-indent:0;text-align:start;text-decoration:none;text-decoration-line:none;text-decoration-style:solid;text-decoration-color:#000000;letter-spacing:normal;word-spacing:normal;text-transform:none;writing-mode:lr-tb;direction:ltr;baseline-shift:baseline;text-anchor:start;white-space:normal;clip-rule:nonzero;display:inline;overflow:visible;visibility:visible;opacity:1;isolation:auto;mix-blend-mode:normal;color-interpolation:sRGB;color-interpolation-filters:linearRGB;solid-color:#000000;solid-opacity:1;fill:#b3b3b3;fill-opacity:1;fill-rule:nonzero;stroke:none;stroke-width:0.27459407;stroke-linecap:butt;stroke-linejoin:miter;stroke-miterlimit:4;stroke-dasharray:none;stroke-dashoffset:0;stroke-opacity:1;color-rendering:auto;image-rendering:auto;shape-rendering:auto;text-rendering:auto;enable-background:accumulate" />
      <path
         inkscape:connector-curvature="0"
         id="path4602"
         d="m 13.156286,280.52183 c -0.296561,0.41332 -0.38032,0.79659 -0.342767,1.14314 0.03755,0.34654 0.186484,0.6511 0.326741,0.94213 0.14026,0.29102 0.271921,0.56864 0.305374,0.85528 0.03346,0.28664 -0.02152,0.587 -0.28149,0.95868 l 0.225024,0.15739 c 0.290867,-0.41586 0.36973,-0.80076 0.329214,-1.14791 -0.04052,-0.34714 -0.190624,-0.65186 -0.330759,-0.94265 -0.140132,-0.29077 -0.270205,-0.56748 -0.301091,-0.8525 -0.03089,-0.28503 0.0275,-0.58367 0.292836,-0.95347 z"
         style="color:#000000;font-style:normal;font-variant:normal;font-weight:normal;font-stretch:normal;font-size:medium;line-height:normal;font-family:sans-serif;text-indent:0;text-align:start;text-decoration:none;text-decoration-line:none;text-decoration-style:solid;text-decoration-color:#000000;letter-spacing:normal;word-spacing:normal;text-transform:none;writing-mode:lr-tb;direction:ltr;baseline-shift:baseline;text-anchor:start;white-space:normal;clip-rule:nonzero;display:inline;overflow:visible;visibility:visible;opacity:1;isolation:auto;mix-blend-mode:normal;color-interpolation:sRGB;color-interpolation-filters:linearRGB;solid-color:#000000;solid-opacity:1;fill:#b3b3b3;fill-opacity:1;fill-rule:nonzero;stroke:none;stroke-width:0.27459407;stroke-linecap:butt;stroke-linejoin:miter;stroke-miterlimit:4;stroke-dasharray:none;stroke-dashoffset:0;stroke-opacity:1;color-rendering:auto;image-rendering:auto;shape-rendering:auto;text-rendering:auto;enable-background:accumulate" />
      <text
         id="text4747"
         y="287.93689"
         x="6.1288838"
         style="font-style:normal;font-weight:normal;font-size:3.93518329px;line-height:0%;font-family:sans-serif;letter-spacing:0px;word-spacing:0px;fill:#b3b3b3;fill-opacity:1;stroke:none;stroke-width:0.32793197px;stroke-linecap:butt;stroke-linejoin:miter;stroke-opacity:1"
         xml:space="preserve"><tspan
           style="font-style:normal;font-variant:normal;font-weight:bold;font-stretch:normal;font-size:1.80444908px;line-height:1.28999996;font-family:Titillium;-inkscape-font-specification:'Titillium Bold';fill:#b3b3b3;fill-opacity:1;stroke-width:0.32793197px"
           y="287.93689"
           x="6.1288838"
           id="tspan4749"
           sodipodi:role="line">CAUTION: HOT!</tspan></text>
    </g>
    <text
       xml:space="preserve"
       style="font-style:normal;font-variant:normal;font-weight:normal;font-stretch:normal;font-size:3.12616372px;line-height:1;font-family:sans-serif;font-variant-ligatures:normal;font-variant-position:normal;font-variant-caps:normal;font-variant-numeric:normal;font-variant-alternates:normal;font-feature-settings:normal;text-indent:0;text-align:start;text-decoration:none;text-decoration-line:none;text-decoration-style:solid;text-decoration-color:#000000;letter-spacing:0px;word-spacing:0px;text-transform:none;writing-mode:lr-tb;direction:ltr;text-orientation:mixed;dominant-baseline:auto;baseline-shift:baseline;text-anchor:start;white-space:normal;shape-padding:0;opacity:1;vector-effect:none;fill:#b3b3b3;fill-opacity:1;stroke:none;stroke-width:0.0781541;stroke-linecap:butt;stroke-linejoin:miter;stroke-miterlimit:4;stroke-dasharray:none;stroke-dashoffset:0;stroke-opacity:1"
       x="264.63943"
       y="-9.5085478"
       id="text4517"
       transform="rotate(90)"><tspan
         sodipodi:role="line"
         id="tspan4515"
         x="264.63943"
         y="-9.5085478"
         style="font-style:normal;font-variant:normal;font-weight:600;font-stretch:normal;font-size:2.82222223px;font-family:Titillium;-inkscape-font-specification:'Titillium Semi-Bold';fill:#b3b3b3;fill-opacity:1;stroke-width:0.0781541">0.50mm</tspan></text>
    <path
       style="opacity:1;vector-effect:none;fill:none;fill-opacity:1;stroke:#000000;stroke-width:0.5;stroke-linecap:butt;stroke-linejoin:miter;stroke-miterlimit:4;stroke-dasharray:none;stroke-dashoffset:0;stroke-opacity:1"
       d="m -73.001042,282.475 h 3"
       id="path4520"
       inkscape:connector-curvature="0"
       sodipodi:nodetypes="cc" />
    <path
       sodipodi:nodetypes="cc"
       inkscape:connector-curvature="0"
       id="path4522"
       d="m -73.001042,265.44844 h 3"
       style="opacity:1;vector-effect:none;fill:none;fill-opacity:1;stroke:#000000;stroke-width:0.5;stroke-linecap:butt;stroke-linejoin:miter;stroke-miterlimit:4;stroke-dasharray:none;stroke-dashoffset:0;stroke-opacity:1" />
    <path
       sodipodi:nodetypes="cc"
       inkscape:connector-curvature="0"
       id="path4524"
       d="m -92.001042,282.475 h 3"
       style="opacity:1;vector-effect:none;fill:none;fill-opacity:1;stroke:#000000;stroke-width:0.5;stroke-linecap:butt;stroke-linejoin:miter;stroke-miterlimit:4;stroke-dasharray:none;stroke-dashoffset:0;stroke-opacity:1" />
    <path
       style="opacity:1;vector-effect:none;fill:none;fill-opacity:1;stroke:#000000;stroke-width:0.5;stroke-linecap:butt;stroke-linejoin:miter;stroke-miterlimit:4;stroke-dasharray:none;stroke-dashoffset:0;stroke-opacity:1"
       d="m -92.001042,265.44844 h 3"
       id="path4526"
       inkscape:connector-curvature="0"
       sodipodi:nodetypes="cc" />
    <path
       sodipodi:nodetypes="cc"
       inkscape:connector-curvature="0"
       id="path4554"
       d="m -88.001041,264.475 2e-6,-3"
       style="opacity:1;vector-effect:none;fill:none;fill-opacity:1;stroke:#000000;stroke-width:0.5;stroke-linecap:butt;stroke-linejoin:miter;stroke-miterlimit:4;stroke-dasharray:none;stroke-dashoffset:0;stroke-opacity:1" />
    <path
       style="opacity:1;vector-effect:none;fill:none;fill-opacity:1;stroke:#000000;stroke-width:0.5;stroke-linecap:butt;stroke-linejoin:miter;stroke-miterlimit:4;stroke-dasharray:none;stroke-dashoffset:0;stroke-opacity:1"
       d="m -74.00104,264.475 2e-6,-3"
       id="path4556"
       inkscape:connector-curvature="0"
       sodipodi:nodetypes="cc" />
    <text
       xml:space="preserve"
       style="font-style:normal;font-variant:normal;font-weight:normal;font-stretch:normal;font-size:2.14936781px;line-height:1;font-family:sans-serif;font-variant-ligatures:normal;font-variant-position:normal;font-variant-caps:normal;font-variant-numeric:normal;font-variant-alternates:normal;font-feature-settings:normal;text-indent:0;text-align:start;text-decoration:none;text-decoration-line:none;text-decoration-style:solid;text-decoration-color:#000000;letter-spacing:0px;word-spacing:0px;text-transform:none;writing-mode:lr-tb;direction:ltr;text-orientation:mixed;dominant-baseline:auto;baseline-shift:baseline;text-anchor:start;white-space:normal;shape-padding:0;opacity:1;vector-effect:none;fill:#000000;fill-opacity:1;stroke:none;stroke-width:0.05373419;stroke-linecap:butt;stroke-linejoin:miter;stroke-miterlimit:4;stroke-dasharray:none;stroke-dashoffset:0;stroke-opacity:1"
       x="12.352837"
       y="293.93231"
       id="text4518"><tspan
         sodipodi:role="line"
         id="tspan4516"
         x="12.352837"
         y="293.93231"
         style="font-style:normal;font-variant:normal;font-weight:normal;font-stretch:normal;font-family:Titillium;-inkscape-font-specification:Titillium;stroke-width:0.05373419">5/8&quot;</tspan></text>
    <text
       id="text4522"
       y="72.157417"
       x="271.28571"
       style="font-style:normal;font-variant:normal;font-weight:normal;font-stretch:normal;font-size:2.14936781px;line-height:1;font-family:sans-serif;font-variant-ligatures:normal;font-variant-position:normal;font-variant-caps:normal;font-variant-numeric:normal;font-variant-alternates:normal;font-feature-settings:normal;text-indent:0;text-align:start;text-decoration:none;text-decoration-line:none;text-decoration-style:solid;text-decoration-color:#000000;letter-spacing:0px;word-spacing:0px;text-transform:none;writing-mode:lr-tb;direction:ltr;text-orientation:mixed;dominant-baseline:auto;baseline-shift:baseline;text-anchor:start;white-space:normal;shape-padding:0;opacity:1;vector-effect:none;fill:#000000;fill-opacity:1;stroke:none;stroke-width:0.05373419;stroke-linecap:butt;stroke-linejoin:miter;stroke-miterlimit:4;stroke-dasharray:none;stroke-dashoffset:0;stroke-opacity:1"
       xml:space="preserve"
       transform="rotate(90)"><tspan
         style="font-style:normal;font-variant:normal;font-weight:normal;font-stretch:normal;font-family:Titillium;-inkscape-font-specification:Titillium;stroke-width:0.05373419"
         y="72.157417"
         x="271.28571"
         id="tspan4520"
         sodipodi:role="line">17mm</tspan></text>
    <g
       id="g955">
      <path
         sodipodi:nodetypes="cc"
         inkscape:connector-curvature="0"
         id="path874"
         d="m 6.3499979,294.68649 2e-6,-3"
         style="opacity:1;vector-effect:none;fill:none;fill-opacity:1;stroke:#000000;stroke-width:0.5;stroke-linecap:butt;stroke-linejoin:miter;stroke-miterlimit:4;stroke-dasharray:none;stroke-dashoffset:0;stroke-opacity:1" />
      <path
         style="opacity:1;vector-effect:none;fill:none;fill-opacity:1;stroke:#000000;stroke-width:0.5;stroke-linecap:butt;stroke-linejoin:miter;stroke-miterlimit:4;stroke-dasharray:none;stroke-dashoffset:0;stroke-opacity:1"
         d="m 22.016731,294.68649 2e-6,-3"
         id="path876"
         inkscape:connector-curvature="0"
         sodipodi:nodetypes="cc" />
    </g>
    <g
       id="g951"
       transform="translate(1.0583333)">
      <path
         style="opacity:1;vector-effect:none;fill:none;fill-opacity:1;stroke:#000000;stroke-width:0.5;stroke-linecap:butt;stroke-linejoin:miter;stroke-miterlimit:4;stroke-dasharray:none;stroke-dashoffset:0;stroke-opacity:1"
         d="m 28.353538,287.21976 h -3"
         id="path935"
         inkscape:connector-curvature="0"
         sodipodi:nodetypes="cc" />
      <path
         sodipodi:nodetypes="cc"
         inkscape:connector-curvature="0"
         id="path937"
         d="m 28.353538,261.79991 h -3"
         style="opacity:1;vector-effect:none;fill:none;fill-opacity:1;stroke:#000000;stroke-width:0.5;stroke-linecap:butt;stroke-linejoin:miter;stroke-miterlimit:4;stroke-dasharray:none;stroke-dashoffset:0;stroke-opacity:1" />
    </g>
    <text
       id="text947"
       y="274.0907"
       x="26.864542"
       style="font-style:normal;font-variant:normal;font-weight:normal;font-stretch:normal;font-size:2.14936781px;line-height:1;font-family:sans-serif;font-variant-ligatures:normal;font-variant-position:normal;font-variant-caps:normal;font-variant-numeric:normal;font-variant-alternates:normal;font-feature-settings:normal;text-indent:0;text-align:start;text-decoration:none;text-decoration-line:none;text-decoration-style:solid;text-decoration-color:#000000;letter-spacing:0px;word-spacing:0px;text-transform:none;writing-mode:lr-tb;direction:ltr;text-orientation:mixed;dominant-baseline:auto;baseline-shift:baseline;text-anchor:start;white-space:normal;shape-padding:0;opacity:1;vector-effect:none;fill:#000000;fill-opacity:1;stroke:none;stroke-width:0.05373419;stroke-linecap:butt;stroke-linejoin:miter;stroke-miterlimit:4;stroke-dasharray:none;stroke-dashoffset:0;stroke-opacity:1"
       xml:space="preserve"><tspan
         style="font-style:normal;font-variant:normal;font-weight:normal;font-stretch:normal;font-family:Titillium;-inkscape-font-specification:Titillium;stroke-width:0.05373419"
         y="274.0907"
         x="26.864542"
         id="tspan945"
         sodipodi:role="line">1&quot;</tspan></text>
  </g>
</svg>
